<svg width="59" height="25" viewBox="0 0 59 25" fill="none" xmlns="http://www.w3.org/2000/svg">
<g clip-path="url(#clip0_1415_221)">
<path d="M26.3066 0V25H0V0H26.3066ZM33.3154 17.3203C35.9538 17.3204 36.8333 19.2146 36.9434 20.1621H34.7998C34.7997 19.7937 34.5518 19.1358 33.3154 19.1357C31.831 19.1357 31.748 20.5571 31.748 20.7939C31.7481 21.0309 31.8311 22.5303 33.3154 22.5303C34.5026 22.5302 34.7448 21.8723 34.7998 21.5039H36.9434C36.9434 22.4513 36.2179 24.3466 33.3154 24.3467C30.4126 24.3467 29.8516 22.057 29.8516 20.7939C29.8516 19.4518 30.6765 17.3203 33.3154 17.3203ZM46.5107 21.8135C46.6207 22.0858 47.0384 22.6309 47.8301 22.6309C48.6216 22.6307 49.0395 22.0858 49.1494 21.8135V17.3203H51.0459V21.8135C50.9635 22.6577 50.2048 24.3466 47.8301 24.3467C45.4551 24.3467 44.6412 22.6577 44.5312 21.8135V17.3203H46.5107V21.8135ZM39.2852 17.3203C39.2755 18.9957 39.2854 20.6664 39.3145 22.332H43.3506C43.3871 22.9707 43.3871 23.6141 43.3506 24.2617H37.6016V24.0312C37.6306 21.7991 37.6404 19.5621 37.6309 17.3203H39.2852ZM57.3096 17.3203C57.9693 17.3203 58.8768 17.8713 58.877 18.709C58.877 20.1895 58.4768 20.432 58.249 20.5693C58.2381 20.5759 58.2269 20.5817 58.2168 20.5879C58.4917 20.7513 58.959 21.1605 58.959 21.9775C58.9589 23.2028 58.5467 24.1826 57.0625 24.1826H52.6094V17.3203H57.3096ZM54.6709 22.3857H56.8154C56.8704 22.3581 56.9805 22.1565 56.9805 21.8955C56.9805 21.634 56.8149 21.4053 56.7324 21.4053H54.6709V22.3857ZM5.77246 9.39551H10.1436C8.68667 10.9477 5.77249 15.2288 5.77246 19.9346H10.1436C10.6933 16.9661 12.6175 10.9636 15.916 10.7021V14.624H20.6982V4.90234H5.77246V9.39551ZM54.6709 19.8496H56.8154C56.8704 19.8219 56.9803 19.624 56.9805 19.3633C56.9805 19.0398 56.8149 18.9541 56.7324 18.9541H54.6709V19.8496ZM48.4873 8.98828C51.1257 8.98842 52.0051 10.8826 52.1152 11.8301H49.9717C49.9716 11.4616 49.7237 10.8038 48.4873 10.8037C47.0029 10.8037 46.9199 12.2251 46.9199 12.4619C46.9199 12.6988 47.0029 14.1982 48.4873 14.1982C49.674 14.1981 49.9166 13.5413 49.9717 13.1729H52.1152C52.115 14.1204 51.3893 16.0145 48.4873 16.0146C45.5845 16.0146 45.0234 13.725 45.0234 12.4619C45.0234 11.1198 45.8484 8.98828 48.4873 8.98828ZM58.9971 15.9492C58.4211 15.9588 57.85 15.9496 57.2842 15.9209V13.3857H54.5547V15.9209C53.9787 15.9114 53.4077 15.9205 52.8418 15.9492C52.7658 15.9569 52.6931 15.9478 52.624 15.9209C52.6045 13.6743 52.6045 11.4272 52.624 9.18066C53.2702 9.14233 53.914 9.14233 54.5547 9.18066V11.6865H57.2842V9.18066C57.85 9.15196 58.4211 9.14284 58.9971 9.15234V15.9492ZM37.6035 15.8477H35.624L34.9648 14.541H32.4902L31.9961 15.8477H29.8516L32.6553 9.14844H34.9648L37.6035 15.8477ZM42.9072 9.14844C43.4946 9.46963 44.6982 10.0886 44.6982 11.3818C44.6981 12.6966 43.9817 13.3017 43.5527 13.71C43.4961 13.7638 43.443 13.815 43.3955 13.8633L44.4541 15.8477H42.3369L41.2783 13.8633H39.9746V15.8477H38.1016V9.14844H42.9072ZM33.2324 12.9062H34.3867L33.8096 11.4355L33.2324 12.9062ZM39.9746 11.9609H42.3369C42.4183 11.9334 42.581 11.7787 42.5811 11.3818C42.5811 10.9851 42.4183 10.8305 42.3369 10.8027H39.9746V11.9609ZM36.7061 0C36.7156 0.573424 36.7055 1.14482 36.6768 1.71387C35.9122 1.72827 35.1476 1.73331 34.3828 1.72852C34.3878 3.38933 34.3827 5.05018 34.3682 6.71094C33.722 6.74925 33.0781 6.74927 32.4375 6.71094V1.69922H29.8828C29.8567 1.13328 29.8469 0.566877 29.8535 0H36.7061ZM39.2363 2.30371H41.9658V0H43.9111C43.9201 2.24676 43.9103 4.49319 43.8818 6.73926H41.9658V4.00391H39.2363V6.73926C38.5907 6.74867 37.947 6.73956 37.3057 6.71094C37.2912 4.47401 37.2861 2.23696 37.291 0H39.2363V2.30371ZM50.6416 1.46875H46.6348V2.50586H50.2354C50.269 3.00011 50.2731 3.49977 50.249 4.00391C50.2381 4.01957 50.2238 4.02903 50.2061 4.03223C49.0207 4.00345 47.83 3.99435 46.6348 4.00391C46.6252 4.34491 46.6353 4.68099 46.6641 5.01172H50.6709V6.73926C48.6801 6.74879 46.6909 6.73968 44.7041 6.71094C44.6896 4.47401 44.6845 2.23696 44.6895 0H50.6416V1.46875ZM56.4023 0C56.6149 0 56.8181 0.0405248 57.0107 0.12207C57.2047 0.203628 57.3712 0.314679 57.5107 0.454102C57.6515 0.59221 57.7633 0.7572 57.8457 0.949219C57.9281 1.14001 57.9697 1.34124 57.9697 1.55176C57.9697 1.76343 57.9281 1.96526 57.8457 2.15723C57.7633 2.34797 57.6516 2.5129 57.5107 2.65234C57.3712 2.79047 57.2047 2.90086 57.0107 2.98242C56.8181 3.06398 56.6149 3.10449 56.4023 3.10449C56.1899 3.10444 55.9868 3.06389 55.793 2.98242C55.6003 2.90085 55.4328 2.7905 55.292 2.65234C55.1527 2.51298 55.0422 2.34779 54.96 2.15723C54.8776 1.96526 54.836 1.76343 54.8359 1.55176C54.8359 1.34124 54.8776 1.14001 54.96 0.949219C55.0422 0.757357 55.1527 0.592139 55.292 0.454102C55.4328 0.314629 55.6003 0.203648 55.793 0.12207C55.9868 0.0406195 56.1899 5.41669e-05 56.4023 0ZM56.4023 0.347656C56.2364 0.34771 56.0787 0.37935 55.9287 0.442383C55.7788 0.505451 55.649 0.590562 55.54 0.698242C55.4324 0.80482 55.346 0.933355 55.2822 1.08203C55.2186 1.23058 55.1865 1.38746 55.1865 1.55176C55.1866 1.77132 55.2411 1.97379 55.3486 2.15918C55.4577 2.3433 55.605 2.4898 55.791 2.59766C55.9782 2.70404 56.182 2.75677 56.4023 2.75684C56.5684 2.75684 56.7268 2.72526 56.877 2.66211C57.027 2.59901 57.1561 2.51401 57.2637 2.40625C57.3726 2.29841 57.4597 2.17007 57.5234 2.02148C57.5872 1.87294 57.6191 1.71606 57.6191 1.55176C57.6191 1.38749 57.5871 1.23055 57.5234 1.08203C57.4597 0.933355 57.3726 0.80482 57.2637 0.698242C57.1561 0.5905 57.027 0.505477 56.877 0.442383C56.7268 0.379244 56.5684 0.347656 56.4023 0.347656ZM56.4287 0.789062C56.624 0.789073 56.7842 0.84202 56.9092 0.947266C57.0354 1.05121 57.1061 1.19185 57.1221 1.36816H56.6953C56.6847 1.29856 56.6567 1.24356 56.6104 1.2041C56.5639 1.16331 56.5056 1.14258 56.4365 1.14258C56.3463 1.14261 56.2754 1.17886 56.2236 1.25098C56.1731 1.32202 56.1475 1.42218 56.1475 1.5498C56.1475 1.68115 56.1732 1.78256 56.2236 1.85352C56.274 1.92435 56.345 1.95993 56.4365 1.95996C56.5083 1.95996 56.5672 1.94114 56.6123 1.9043C56.6572 1.86755 56.6846 1.81577 56.6953 1.74902H57.1221C57.106 1.92381 57.0366 2.06185 56.9131 2.16309C56.7909 2.26309 56.6306 2.31348 56.4326 2.31348C56.2001 2.31347 56.0177 2.24489 55.8848 2.10938C55.7521 1.97263 55.6856 1.78638 55.6855 1.5498C55.6855 1.31562 55.7519 1.13063 55.8848 0.995117C56.019 0.858272 56.2001 0.789062 56.4287 0.789062Z" fill="white"/>
</g>
<defs>
<clipPath id="clip0_1415_221">
<rect width="59" height="25" fill="white"/>
</clipPath>
</defs>
</svg>
