<svg width="108" height="22" viewBox="0 0 108 22" fill="none" xmlns="http://www.w3.org/2000/svg">
<g clip-path="url(#clip0_1415_356)">
<path d="M16.2109 16.2441H10.5469V13.3086H16.2109V16.2441Z" fill="white"/>
<path d="M16.2119 8.2168H8.39844V16.2393H5.46875V5.28125H16.2119V8.2168Z" fill="white"/>
<path fill-rule="evenodd" clip-rule="evenodd" d="M21.876 21.5205H2.92969V18.9814H0V0H21.875L21.876 21.5205ZM2.92969 18.9766H18.9453V2.73926H2.92969V18.9766Z" fill="white"/>
<path d="M34.7227 18.5322H35.834V16.6562H36.2393V18.5322H36.5674V19.3721H36.1895V18.8828H34.3203V16.6562H34.7227V18.5322Z" fill="white"/>
<path d="M99.1602 18.5322H99.9727V16.6562H100.375V18.5322H101.184V16.6562H101.587V18.5322H101.904V19.3564H101.526V18.8828H98.7578V16.6562H99.1602V18.5322Z" fill="white"/>
<path d="M27.1641 16.625C27.3445 16.625 27.5093 16.6571 27.6582 16.7207C27.8072 16.7822 27.9333 16.874 28.0361 16.9971L27.7715 17.248C27.6918 17.1612 27.6025 17.0971 27.5039 17.0547C27.4055 17.0103 27.2988 16.9874 27.1836 16.9873C27.0682 16.9873 26.9617 17.0067 26.8652 17.0449C26.7709 17.083 26.6885 17.1372 26.6172 17.207C26.5479 17.277 26.4929 17.3597 26.4531 17.4551C26.4154 17.5504 26.3965 17.6553 26.3965 17.7695C26.3965 17.8841 26.4153 17.9895 26.4531 18.085C26.4929 18.1803 26.548 18.2631 26.6172 18.333C26.6885 18.4029 26.771 18.457 26.8652 18.4951C26.9617 18.5333 27.0682 18.5527 27.1836 18.5527C27.2988 18.5527 27.4055 18.5305 27.5039 18.4883C27.6026 18.4437 27.6917 18.3772 27.7715 18.2881L28.0361 18.543C27.9333 18.6637 27.8072 18.7558 27.6582 18.8193C27.5093 18.8829 27.3436 18.915 27.1611 18.915C26.9934 18.915 26.8371 18.8872 26.6924 18.832C26.5499 18.7748 26.4253 18.6953 26.3184 18.5938C26.2135 18.4898 26.131 18.3675 26.0723 18.2275C26.0137 18.0877 25.9844 17.9348 25.9844 17.7695C25.9844 17.6043 26.0136 17.4513 26.0723 17.3115C26.131 17.1716 26.2143 17.0509 26.3213 16.9492C26.4281 16.8454 26.5528 16.766 26.6953 16.7109C26.8379 16.6537 26.9943 16.625 27.1641 16.625Z" fill="white"/>
<path fill-rule="evenodd" clip-rule="evenodd" d="M58.249 16.625C58.421 16.625 58.5781 16.6537 58.7207 16.7109C58.8654 16.7682 58.9917 16.8484 59.0986 16.9521C59.2056 17.0539 59.288 17.1755 59.3467 17.3154C59.4053 17.4531 59.4345 17.6044 59.4346 17.7695C59.4346 17.9348 59.4053 18.0877 59.3467 18.2275C59.288 18.3674 59.2056 18.4891 59.0986 18.5908C58.9917 18.6926 58.8654 18.7719 58.7207 18.8291C58.5781 18.8864 58.4217 18.915 58.252 18.915C58.0799 18.915 57.9212 18.8864 57.7764 18.8291C57.6319 18.772 57.5063 18.6924 57.3994 18.5908C57.2924 18.4869 57.2091 18.3653 57.1504 18.2275C57.0918 18.0877 57.0625 17.9348 57.0625 17.7695C57.0625 17.6044 57.0918 17.4531 57.1504 17.3154C57.2091 17.1755 57.2924 17.0539 57.3994 16.9521C57.5063 16.8486 57.6319 16.7682 57.7764 16.7109C57.9212 16.6537 58.0791 16.625 58.249 16.625ZM58.249 16.9873C58.1379 16.9873 58.0348 17.0067 57.9404 17.0449C57.8483 17.083 57.7666 17.138 57.6953 17.21C57.6261 17.2799 57.5711 17.3627 57.5312 17.458C57.4935 17.5512 57.4746 17.6552 57.4746 17.7695C57.4746 17.8818 57.4936 17.9859 57.5312 18.0811C57.5711 18.1765 57.6261 18.261 57.6953 18.333C57.7645 18.4029 57.8461 18.457 57.9404 18.4951C58.0348 18.5332 58.138 18.5527 58.249 18.5527C58.3599 18.5527 58.4624 18.5331 58.5566 18.4951C58.651 18.457 58.7335 18.4031 58.8027 18.333C58.8719 18.2611 58.9251 18.1781 58.9629 18.085C59.0027 17.9895 59.0225 17.8841 59.0225 17.7695C59.0224 17.6552 59.0027 17.5512 58.9629 17.458C58.9251 17.3627 58.8719 17.2799 58.8027 17.21C58.7335 17.1379 58.651 17.0831 58.5566 17.0449C58.4624 17.0068 58.36 16.9873 58.249 16.9873Z" fill="white"/>
<path d="M86.0312 16.625C86.2116 16.625 86.3764 16.6571 86.5254 16.7207C86.6743 16.7822 86.8006 16.874 86.9033 16.9971L86.6387 17.248C86.559 17.1612 86.4695 17.0971 86.3711 17.0547C86.2726 17.0103 86.1659 16.9874 86.0508 16.9873C85.9354 16.9873 85.8289 17.0067 85.7324 17.0449C85.6382 17.083 85.5557 17.1372 85.4844 17.207C85.4153 17.277 85.3603 17.3597 85.3203 17.4551C85.2827 17.5504 85.2637 17.6552 85.2637 17.7695C85.2637 17.8841 85.2826 17.9895 85.3203 18.085C85.3602 18.1803 85.4153 18.2631 85.4844 18.333C85.5557 18.4029 85.6383 18.457 85.7324 18.4951C85.8289 18.5333 85.9354 18.5527 86.0508 18.5527C86.1659 18.5527 86.2726 18.5305 86.3711 18.4883C86.4696 18.4437 86.5589 18.3772 86.6387 18.2881L86.9033 18.543C86.8006 18.6637 86.6743 18.7558 86.5254 18.8193C86.3764 18.8829 86.2108 18.915 86.0283 18.915C85.8605 18.915 85.7042 18.8871 85.5596 18.832C85.4171 18.7748 85.2924 18.6954 85.1855 18.5938C85.0807 18.4898 84.9982 18.3675 84.9395 18.2275C84.8807 18.0877 84.8516 17.9348 84.8516 17.7695C84.8516 17.6043 84.8807 17.4513 84.9395 17.3115C84.9982 17.1716 85.0817 17.0509 85.1885 16.9492C85.2954 16.8454 85.42 16.766 85.5625 16.7109C85.7051 16.6537 85.8614 16.625 86.0312 16.625Z" fill="white"/>
<path fill-rule="evenodd" clip-rule="evenodd" d="M93.7178 16.625C93.8896 16.625 94.0469 16.6537 94.1895 16.7109C94.3341 16.7682 94.4604 16.8484 94.5674 16.9521C94.6744 17.0539 94.7567 17.1755 94.8154 17.3154C94.874 17.4532 94.9033 17.6044 94.9033 17.7695C94.9033 17.9348 94.8741 18.0877 94.8154 18.2275C94.7567 18.3674 94.6744 18.4891 94.5674 18.5908C94.4604 18.6926 94.3341 18.7719 94.1895 18.8291C94.0468 18.8863 93.8906 18.915 93.7207 18.915C93.5487 18.915 93.3898 18.8864 93.2451 18.8291C93.1007 18.772 92.9749 18.6924 92.8682 18.5908C92.7611 18.4869 92.6779 18.3653 92.6191 18.2275C92.5605 18.0877 92.5312 17.9348 92.5312 17.7695C92.5313 17.6044 92.5606 17.4531 92.6191 17.3154C92.6779 17.1755 92.7611 17.0539 92.8682 16.9521C92.9749 16.8486 93.1007 16.7682 93.2451 16.7109C93.3898 16.6537 93.5478 16.625 93.7178 16.625ZM93.7178 16.9873C93.6066 16.9873 93.5036 17.0067 93.4092 17.0449C93.317 17.083 93.2353 17.138 93.1641 17.21C93.0949 17.2799 93.0398 17.3626 93 17.458C92.9623 17.5512 92.9434 17.6552 92.9434 17.7695C92.9434 17.8818 92.9623 17.9859 93 18.0811C93.0398 18.1765 93.0948 18.261 93.1641 18.333C93.2332 18.4029 93.315 18.457 93.4092 18.4951C93.5036 18.5332 93.6066 18.5527 93.7178 18.5527C93.8286 18.5527 93.9312 18.5331 94.0254 18.4951C94.1198 18.457 94.2023 18.4031 94.2715 18.333C94.3407 18.2611 94.3939 18.1781 94.4316 18.085C94.4715 17.9895 94.4912 17.8841 94.4912 17.7695C94.4912 17.6552 94.4714 17.5512 94.4316 17.458C94.3939 17.3627 94.3407 17.2799 94.2715 17.21C94.2023 17.1379 94.1198 17.0831 94.0254 17.0449C93.9312 17.0068 93.8286 16.9873 93.7178 16.9873Z" fill="white"/>
<path d="M45.083 18.8828H44.6807V17.0059H43.8115L43.793 17.5625C43.7866 17.7829 43.7721 17.9771 43.749 18.1445C43.726 18.3119 43.6907 18.4529 43.6426 18.5674C43.5965 18.6795 43.5345 18.7658 43.457 18.8252C43.3795 18.8845 43.2806 18.914 43.1611 18.9141C43.1255 18.9141 43.0893 18.9106 43.0537 18.9043C43.0182 18.8979 42.9794 18.8913 42.9375 18.8828L42.9658 18.5234C42.9951 18.5319 43.027 18.5361 43.0605 18.5361C43.1485 18.536 43.2191 18.4997 43.2715 18.4277C43.3238 18.3536 43.3607 18.2454 43.3838 18.1035C43.4069 17.9615 43.4233 17.7858 43.4316 17.5781L43.4629 16.6562H45.083V18.8828Z" fill="white"/>
<path d="M49.8311 16.6309C49.9737 16.6437 50.1025 16.6764 50.2158 16.7295C50.3309 16.7824 50.423 16.8526 50.4922 16.9395C50.5613 17.0242 50.5957 17.1247 50.5957 17.2412C50.5957 17.3473 50.5673 17.4418 50.5107 17.5244C50.4562 17.6049 50.3806 17.6675 50.2842 17.7119C50.2766 17.7154 50.2685 17.7175 50.2607 17.7207C50.2885 17.7299 50.3152 17.7408 50.3408 17.7529C50.4499 17.8017 50.5341 17.8701 50.5928 17.957C50.6536 18.0439 50.6845 18.1444 50.6846 18.2588C50.6846 18.3669 50.6571 18.464 50.6025 18.5488C50.548 18.6314 50.4732 18.7015 50.3789 18.7588C50.2845 18.8138 50.1762 18.8553 50.0547 18.8828C49.933 18.9082 49.8051 18.9175 49.6709 18.9111C49.5368 18.9048 49.4027 18.8811 49.2686 18.8408C49.1363 18.8005 49.0102 18.7415 48.8906 18.6631L49.0225 18.3604C49.1169 18.426 49.2199 18.4777 49.3311 18.5137C49.4443 18.5476 49.5569 18.5652 49.668 18.5674C49.7791 18.5694 49.8796 18.5569 49.9697 18.5293C50.062 18.5018 50.1359 18.4604 50.1904 18.4053C50.2449 18.3502 50.2715 18.2808 50.2715 18.1982C50.2714 18.0987 50.2311 18.0243 50.1494 17.9756C50.0697 17.9247 49.9606 17.8995 49.8223 17.8994H49.3096V17.5752H49.79C49.9138 17.5752 50.0099 17.5498 50.0771 17.499C50.1463 17.4481 50.1807 17.3789 50.1807 17.292C50.1806 17.22 50.1574 17.1608 50.1113 17.1143C50.0673 17.0676 50.0063 17.0321 49.9287 17.0088C49.8533 16.9855 49.7673 16.9754 49.6709 16.9775C49.5765 16.9775 49.4778 16.9918 49.375 17.0215C49.2725 17.0491 49.1751 17.0906 49.083 17.1455L48.9531 16.8115C49.0916 16.7374 49.2367 16.6859 49.3877 16.6562C49.5408 16.6266 49.6886 16.6182 49.8311 16.6309Z" fill="white"/>
<path d="M80.4639 16.6309C80.6064 16.6437 80.7353 16.6764 80.8486 16.7295C80.9637 16.7824 81.0558 16.8526 81.125 16.9395C81.1942 17.0242 81.2285 17.1247 81.2285 17.2412C81.2285 17.3473 81.2002 17.4418 81.1436 17.5244C81.089 17.6049 81.0133 17.6675 80.917 17.7119C80.9094 17.7154 80.9013 17.7175 80.8936 17.7207C80.9213 17.7299 80.948 17.7408 80.9736 17.7529C81.0827 17.8017 81.1669 17.8701 81.2256 17.957C81.2864 18.0439 81.3173 18.1444 81.3174 18.2588C81.3174 18.3669 81.2899 18.464 81.2354 18.5488C81.1808 18.6314 81.106 18.7015 81.0117 18.7588C80.9174 18.8138 80.809 18.8553 80.6875 18.8828C80.5659 18.9082 80.4378 18.9175 80.3037 18.9111C80.1695 18.9048 80.0354 18.8811 79.9014 18.8408C79.7693 18.8005 79.643 18.7415 79.5234 18.6631L79.6553 18.3604C79.7497 18.426 79.8527 18.4777 79.9639 18.5137C80.0771 18.5476 80.1897 18.5652 80.3008 18.5674C80.4119 18.5694 80.5124 18.5569 80.6025 18.5293C80.6949 18.5018 80.7687 18.4604 80.8232 18.4053C80.8777 18.3502 80.9043 18.2808 80.9043 18.1982C80.9042 18.0987 80.8639 18.0243 80.7822 17.9756C80.7026 17.9247 80.5933 17.8994 80.4551 17.8994H79.9424V17.5752H80.4238C80.5473 17.5751 80.6429 17.5498 80.71 17.499C80.7791 17.4481 80.8135 17.3789 80.8135 17.292C80.8134 17.22 80.7902 17.1608 80.7441 17.1143C80.7001 17.0676 80.6391 17.0321 80.5615 17.0088C80.4861 16.9855 80.4001 16.9754 80.3037 16.9775C80.2093 16.9776 80.1106 16.9918 80.0078 17.0215C79.9053 17.0491 79.808 17.0906 79.7158 17.1455L79.5869 16.8115C79.7251 16.7376 79.8697 16.6859 80.0205 16.6562C80.1734 16.6266 80.3213 16.6182 80.4639 16.6309Z" fill="white"/>
<path d="M30.7676 18.8828H30.3652V17.0059H29.2227V18.8828H28.8203V16.6562H30.7676V18.8828Z" fill="white"/>
<path d="M33.4121 17.0029H32.2139V17.582H33.2773V17.9219H32.2139V18.5361H33.457V18.8828H31.8047V16.6562H33.4121V17.0029Z" fill="white"/>
<path d="M37.7539 18.2373L38.9375 16.6562H39.3184V18.8828H38.915V17.3047L37.7324 18.8828H37.3516V16.6562H37.7539V18.2373Z" fill="white"/>
<path fill-rule="evenodd" clip-rule="evenodd" d="M42.459 18.8828H42.0303L41.8115 18.3672H40.7109L40.4922 18.8828H40.0703L41.0615 16.6562H41.4639L42.459 18.8828ZM40.8477 18.043H41.6738L41.2598 17.0693L40.8477 18.043Z" fill="white"/>
<path d="M46.5195 18.2373L47.7031 16.6562H48.084V18.8828H47.6807V17.3047L46.498 18.8828H46.1172V16.6562H46.5195V18.2373Z" fill="white"/>
<path d="M51.9727 18.2373L53.1562 16.6562H53.5371V18.8828H53.1338V17.3047L51.9512 18.8828H51.5703V16.6562H51.9727V18.2373Z" fill="white"/>
<path fill-rule="evenodd" clip-rule="evenodd" d="M55.4688 16.6562C55.6638 16.6563 55.8304 16.6884 55.9688 16.752C56.1094 16.8156 56.2175 16.9066 56.293 17.0254C56.3685 17.1441 56.4062 17.2851 56.4062 17.4482C56.4062 17.6114 56.3685 17.7524 56.293 17.8711C56.2175 17.9898 56.1094 18.0809 55.9688 18.1445C55.8304 18.2081 55.6637 18.2402 55.4688 18.2402H54.9717V18.8828H54.5625V16.6562H55.4688ZM54.9717 17.8906H55.4502C55.6303 17.8906 55.7654 17.8517 55.8555 17.7754C55.9478 17.697 55.9941 17.5881 55.9941 17.4482C55.9941 17.3062 55.9478 17.1964 55.8555 17.1201C55.7654 17.0441 55.6301 17.0059 55.4502 17.0059H54.9717V17.8906Z" fill="white"/>
<path fill-rule="evenodd" clip-rule="evenodd" d="M61.2812 16.6562C61.5286 16.6562 61.7219 16.7062 61.8604 16.8057C61.9987 16.9032 62.0683 17.0442 62.0684 17.2285C62.0684 17.4108 62.0022 17.5518 61.8701 17.6514C61.8308 17.6804 61.7869 17.7033 61.7402 17.7236C61.831 17.7485 61.9088 17.7849 61.9736 17.833C62.1078 17.9326 62.1748 18.0769 62.1748 18.2656C62.1748 18.4584 62.1053 18.6105 61.9648 18.7207C61.8244 18.8288 61.6164 18.8828 61.3418 18.8828H60.2969V16.6562H61.2812ZM60.6992 18.5645H61.3291C61.4717 18.5644 61.5799 18.5383 61.6533 18.4854C61.7267 18.4302 61.7627 18.3458 61.7627 18.2334C61.7626 18.1211 61.7267 18.0392 61.6533 17.9883C61.5799 17.9353 61.4717 17.9092 61.3291 17.9092H60.6992V18.5645ZM60.6992 17.6074H61.2471C61.3792 17.6074 61.4796 17.5803 61.5488 17.5273C61.6181 17.4722 61.6533 17.3938 61.6533 17.292C61.6533 17.1861 61.618 17.1068 61.5488 17.0537C61.4796 17.0008 61.3791 16.9746 61.2471 16.9746H60.6992V17.6074Z" fill="white"/>
<path fill-rule="evenodd" clip-rule="evenodd" d="M65.1621 18.8828H64.7334L64.5146 18.3672H63.4141L63.1953 18.8828H62.7734L63.7646 16.6562H64.167L65.1621 18.8828ZM63.5508 18.043H64.377L63.9629 17.0693L63.5508 18.043Z" fill="white"/>
<path d="M66.3232 17.5752H67.4619V16.6562H67.8711V18.8828H67.4619V17.9287H66.3232V18.8828H65.9141V16.6562H66.3232V17.5752Z" fill="white"/>
<path d="M69.2998 17.5752H70.4385V16.6562H70.8477V18.8828H70.4385V17.9287H69.2998V18.8828H68.8906V16.6562H69.2998V17.5752Z" fill="white"/>
<path fill-rule="evenodd" clip-rule="evenodd" d="M72.2852 17.4102H72.8965C73.1582 17.4102 73.3604 17.4694 73.5029 17.5879C73.6455 17.7066 73.7167 17.8847 73.7168 18.1221C73.7168 18.3721 73.6385 18.562 73.4814 18.6914C73.3263 18.8185 73.109 18.8828 72.8301 18.8828H71.8828V16.6562H72.2852V17.4102ZM72.2852 18.5645H72.8105C72.9678 18.5645 73.0898 18.5273 73.1758 18.4531C73.2639 18.379 73.3085 18.2709 73.3086 18.1289C73.3086 17.9891 73.2655 17.8869 73.1797 17.8232C73.0936 17.7576 72.97 17.7246 72.8105 17.7246H72.2852V18.5645Z" fill="white"/>
<path d="M74.4375 18.8828H74.0352V16.6562H74.4375V18.8828Z" fill="white"/>
<path fill-rule="evenodd" clip-rule="evenodd" d="M84.3027 18.8828H83.874L83.6553 18.3672H82.5547L82.3359 18.8828H81.9141L82.9053 16.6562H83.3076L84.3027 18.8828ZM82.6914 18.043H83.5176L83.1035 17.0693L82.6914 18.043Z" fill="white"/>
<path d="M89.2607 17.0059H88.5312V18.8828H88.125V17.0059H87.3984V16.6562H89.2607V17.0059Z" fill="white"/>
<path fill-rule="evenodd" clip-rule="evenodd" d="M90.9297 16.6562C91.1248 16.6563 91.2912 16.6884 91.4297 16.752C91.5702 16.8156 91.6783 16.9066 91.7539 17.0254C91.8293 17.1441 91.8672 17.2851 91.8672 17.4482C91.8672 17.6114 91.8293 17.7524 91.7539 17.8711C91.6783 17.9898 91.5702 18.0809 91.4297 18.1445C91.2913 18.2081 91.1247 18.2402 90.9297 18.2402H90.4326V18.8828H90.0234V16.6562H90.9297ZM90.4326 17.8906H90.9111C91.0914 17.8906 91.2262 17.8517 91.3164 17.7754C91.4086 17.697 91.4551 17.5881 91.4551 17.4482C91.4551 17.3062 91.4086 17.1964 91.3164 17.1201C91.2262 17.0441 91.0911 17.0059 90.9111 17.0059H90.4326V17.8906Z" fill="white"/>
<path d="M103.113 18.2373L104.297 16.6562H104.678V18.8828H104.274V17.3047L103.092 18.8828H102.711V16.6562H103.113V18.2373Z" fill="white"/>
<path d="M106.113 17.5879H106.537L107.168 16.6562H107.602L106.849 17.7324L107.63 18.8828H107.168L106.522 17.9443H106.113V18.8828H105.711V16.6562H106.113V17.5879Z" fill="white"/>
<path d="M75.8711 18.2344L77.0547 16.6533H77.4355V18.8799H77.0322V17.3027L75.8496 18.8799H75.4688V16.6533H75.8711V18.2344Z" fill="white"/>
<path d="M96.168 18.2344L97.3516 16.6533H97.7324V18.8799H97.3291V17.3027L96.1465 18.8799H95.7656V16.6533H96.168V18.2344Z" fill="white"/>
<path d="M76.1611 16.043C76.1633 16.1214 76.188 16.1822 76.2363 16.2246C76.2867 16.2669 76.3572 16.2881 76.4473 16.2881C76.5374 16.2881 76.6079 16.2669 76.6582 16.2246C76.7106 16.1822 76.7381 16.1214 76.7402 16.043H77.0234C77.0213 16.1892 76.9715 16.3023 76.875 16.3828C76.7785 16.4634 76.636 16.5039 76.4473 16.5039C76.2585 16.5039 76.116 16.4634 76.0195 16.3828C75.9252 16.3023 75.8772 16.1892 75.875 16.043H76.1611Z" fill="white"/>
<path d="M96.458 16.043C96.46 16.1214 96.485 16.1822 96.5332 16.2246C96.5835 16.2669 96.654 16.2881 96.7441 16.2881C96.8342 16.2881 96.9047 16.2669 96.9551 16.2246C97.0076 16.1822 97.0351 16.1214 97.0371 16.043H97.3203C97.3183 16.1892 97.2683 16.3023 97.1719 16.3828C97.0754 16.4634 96.933 16.5039 96.7441 16.5039C96.5553 16.5039 96.4129 16.4634 96.3164 16.3828C96.222 16.3023 96.174 16.1892 96.1719 16.043H96.458Z" fill="white"/>
<path fill-rule="evenodd" clip-rule="evenodd" d="M42.9688 12.1309H41.0234V12.1338H36.3359V12.1309H34.3828V2.73828H42.9688V12.1309ZM37.1172 9.78516H40.2344V5.08691H37.1172V9.78516Z" fill="white"/>
<path d="M68.9531 6.26074H66.2188V5.08691H62.8906V9.78516H66.2188V8.60938H68.9531V12.1318H66.9922V12.1338H62.3047V12.1309H60.1562V2.73828H68.9531V6.26074Z" fill="white"/>
<path fill-rule="evenodd" clip-rule="evenodd" d="M97.8594 12.1309H95.9062V12.1338H91.2188V12.1309H89.2656V2.73828H97.8594V12.1309ZM92 9.78516H95.125V5.08691H92V9.78516Z" fill="white"/>
<path d="M33.3984 5.08691H28.7188V12.1309H25.9844V2.73828H33.3984V5.08691Z" fill="white"/>
<path fill-rule="evenodd" clip-rule="evenodd" d="M52.7344 9.97852H50.5859V9.98145H46.875V12.1309H44.1406V2.73828H52.7344V9.97852ZM46.875 7.63281H50V5.08691H46.875V7.63281Z" fill="white"/>
<path d="M78.5244 5.08691H75.5859V12.1309H72.8516V5.08691H69.7344V2.73828H78.5244V5.08691Z" fill="white"/>
<path fill-rule="evenodd" clip-rule="evenodd" d="M87.8984 9.97852H86.5312V9.98145H82.2266V12.1309H79.4922V2.73828H87.8984V9.97852ZM82.2266 7.63281H85.1641V5.08691H82.2266V7.63281Z" fill="white"/>
<path d="M101.766 6.70996L104.887 5.28125V8.11816L101.766 9.54785V12.1309H99.0312V2.73828H101.766V6.70996Z" fill="white"/>
<path d="M107.625 12.1309H104.891V2.73828H107.625V12.1309Z" fill="white"/>
<path d="M57.8203 8.61035H55.0859V5.87109H57.8203V8.61035Z" fill="white"/>
<path d="M104.695 1.76074H101.961V0H104.695V1.76074Z" fill="white"/>
</g>
<defs>
<clipPath id="clip0_1415_356">
<rect width="107.625" height="21.525" fill="white"/>
</clipPath>
</defs>
</svg>
