<svg width="91" height="17" viewBox="0 0 91 17" fill="none" xmlns="http://www.w3.org/2000/svg">
<g clip-path="url(#clip0_1415_286)">
<path d="M27.3184 16.3086L15.4766 16.1611L16.4834 14.9082L27.3184 14.7852V16.3086Z" fill="white"/>
<path d="M11.4248 16.1592L0 15.5117L12.3828 14.9062L11.4248 16.1592Z" fill="white"/>
<path fill-rule="evenodd" clip-rule="evenodd" d="M60.9004 14.3984H56.7119C56.5071 13.7838 56.2317 13.0122 55.8867 12.085H50.7275L49.9189 14.3984H45.8594L50.3877 2.65625H56.3398L60.9004 14.3984ZM53.3154 5.11426C52.938 6.09543 52.3826 7.57859 51.6494 9.5625H54.9648C54.5552 8.43041 54.1344 7.29811 53.7031 6.16602L53.3154 5.11426Z" fill="white"/>
<path fill-rule="evenodd" clip-rule="evenodd" d="M81.8926 2.67285H85.2568C87.4021 2.67286 88.8953 3.05506 89.7363 3.82031C90.5773 4.57506 90.998 5.64333 90.998 7.02344C90.998 7.97208 90.8312 8.78083 90.4971 9.44922C90.1628 10.1068 89.5753 10.6247 88.7344 11.002C87.8934 11.3685 86.734 11.5518 85.2568 11.5518H81.8926V14.3984H77.9141V2.65625H81.8926V2.67285ZM81.8926 8.42969H84.125C85.0195 8.42968 85.6878 8.39766 86.1299 8.33301C86.5826 8.25755 86.8958 8.12854 87.0684 7.94531C87.2517 7.76202 87.3428 7.49154 87.3428 7.13574C87.3427 6.78017 87.2564 6.51618 87.084 6.34375C86.9222 6.16055 86.6149 6.03635 86.1621 5.97168C85.7202 5.90703 85.0411 5.87501 84.125 5.875H81.8926V8.42969Z" fill="white"/>
<path d="M37.9961 5.56738L40.1631 2.65625H44.8369L40.2764 8.38184L44.999 14.3975H40.3252L37.9961 11.2275L35.6504 14.3975H30.9766L35.6992 8.38184L31.1387 2.65625H35.8125L37.9961 5.56738Z" fill="white"/>
<path d="M66.0938 11.7451L70.0234 2.67188H75.9756V14.3975H71.8193L72.1104 5.56641L68.1963 14.3975H62.4062V2.67188H66.3682L66.0938 11.7451Z" fill="white"/>
<path d="M25.5488 13.8516L17.3672 13.7773L18.4727 12.4014L25.5488 12.3281V13.8516Z" fill="white"/>
<path d="M13.3945 13.6553L1.77344 13.0576L14.4014 12.4023L13.3945 13.6553Z" fill="white"/>
<path d="M22.9512 11.6406L19.0938 11.5908L20.2236 10.166L22.9512 10.1172V11.6406Z" fill="white"/>
<path d="M15.1064 11.4922L3.63281 10.8447L16.1133 10.2148L15.1064 11.4922Z" fill="white"/>
<path d="M16.7568 9.20898L5.40625 8.66113L15.9707 8.15234L16.7568 9.20898Z" fill="white"/>
<path d="M22.9434 7.21582L19.1357 7.06934L18.2266 5.79102L22.9434 5.74219V7.21582Z" fill="white"/>
<path d="M66.9609 7.2041L67.5117 0H70.1406L66.9609 7.2041Z" fill="white"/>
<path d="M15.2051 7.07031L3.63281 6.44824L14.3691 5.89062L15.2051 7.07031Z" fill="white"/>
<path d="M25.5498 5.05566L17.541 4.83496L16.6562 3.58203H25.5498V5.05566Z" fill="white"/>
<path d="M13.6895 4.90723L1.77344 4.28516L12.8291 3.70312L13.6895 4.90723Z" fill="white"/>
<path d="M27.3203 2.94531L16.043 2.72363L15.1094 1.42188H27.3203V2.94531Z" fill="white"/>
<path d="M12.1592 2.74805L0.046875 2.15039L11.2998 1.59375L12.1592 2.74805Z" fill="white"/>
</g>
<defs>
<clipPath id="clip0_1415_286">
<rect width="91" height="17" fill="white"/>
</clipPath>
</defs>
</svg>
