<svg width="106" height="17" viewBox="0 0 106 17" fill="none" xmlns="http://www.w3.org/2000/svg">
<g clip-path="url(#clip0_1415_264)">
<path d="M2.79297 12.9521H15.6631V15.9131H0V-0.00390625H2.79297V12.9521ZM74.4258 3.69629C75.6372 3.66418 76.9126 4.24048 77.8867 4.93066C77.5417 5.30599 77.0753 5.92308 76.7324 6.28809C74.6789 4.90676 72.6045 5.54763 72.6045 7.76855C72.544 9.80424 74.3437 10.5837 76.3682 9.74219V8.75586H74.6689V7.15137H78.1895C78.2095 8.33916 78.1297 10.7071 78.1289 10.7295C76.7901 11.7903 75.2725 12.14 73.5762 11.7783C71.3291 10.8942 70.418 9.22852 70.8438 6.78125C71.4337 5.00844 72.6276 3.97992 74.4258 3.69629ZM63.7432 3.94922C64.752 5.36507 65.7844 6.88664 66.8398 8.26758C66.9005 6.82872 66.9206 5.38925 66.9004 3.94922H68.7217V11.8457C68.1894 11.8859 67.1426 11.8457 67.1426 11.8457C66.0063 10.3414 64.8932 8.69629 63.8037 7.15723C63.743 8.7195 63.7229 10.2823 63.7432 11.8457H61.9219V3.94922H63.7432ZM93.6152 3.82324C94.9229 3.66513 96.299 4.13825 97.3789 4.87207C97.1415 5.1696 96.737 5.78705 96.5293 6.10645C96.5293 6.10645 95.6175 5.89192 95.1934 5.6123C94.5048 5.29109 93.9384 5.31191 93.4941 5.9209C93.3727 6.22937 93.5549 6.54467 93.8584 6.59961C95.0825 6.82117 96.0434 7.27845 97.0752 8.01855C98.1073 8.75888 97.5339 11.054 95.8008 11.7822C94.4136 12.0308 93.2401 11.6804 92.0371 10.9795C91.8377 10.8192 91.4297 10.5479 91.4297 10.5479L92.5225 9.25293C93.2401 9.94142 94.0901 10.2494 95.0723 10.1777C95.6468 10.0491 95.8083 9.71981 95.5576 9.19043C94.6114 8.82254 93.66 8.34978 92.7041 8.01855C91.551 7.46327 91.4254 6.4004 91.8545 5.18066C92.2543 4.4644 92.8414 4.01181 93.6152 3.82324ZM23.6768 9.99512C24.8916 9.97457 26.106 9.995 27.3193 10.0566V11.8457H21.7344V3.94922H23.6768V9.99512ZM31.0869 11.8457H29.2656V3.94922H31.0869V11.8457ZM35.3408 3.94922C35.3207 4.97826 35.3406 6.00678 35.4014 7.03418C36.2435 5.95779 37.1547 4.94966 38.1338 4.01074L40.4404 4.07227C39.376 5.0786 38.3643 6.14805 37.4053 7.28027C38.5047 8.72645 39.5572 10.2075 40.5625 11.7227L38.0127 11.8457C37.2632 10.7766 36.1898 9.6046 35.4014 8.57617L35.3408 11.8457H33.3984V3.94922H35.3408ZM82.0869 9.99512H85.8506V11.8457H80.2656V3.94922H82.0869V9.99512ZM89.4932 11.8457H87.6719V3.94922H89.4932V11.8457ZM101.384 6.91016H104.177V3.94922H105.998V11.8457H104.177V8.76172H101.384V11.8457H99.5625V3.94922H101.384V6.91016ZM47.957 11.8447H42.0078V10.1172H47.957V11.8447ZM59.8633 11.8447H53.9141V10.1172H59.8633V11.8447ZM15.6631 11.5938H4.25V8.63281H15.6631V11.5938ZM47.957 8.63574H42.0078V7.03125H47.957V8.63574ZM59.8633 8.63574H53.9141V7.03125H59.8633V8.63574ZM15.6631 7.27734H4.25V4.31641H15.6631V7.27734ZM47.957 5.55371H42.0078V3.94922H47.957V5.55371ZM59.8633 5.55371H53.9141V3.94922H59.8633V5.55371ZM15.6631 2.95703H4.25V-0.00390625H15.6631V2.95703Z" fill="white"/>
</g>
<defs>
<clipPath id="clip0_1415_264">
<rect width="106" height="16.6742" fill="white"/>
</clipPath>
</defs>
</svg>
