<svg width="101" height="21" viewBox="0 0 101 21" fill="none" xmlns="http://www.w3.org/2000/svg">
<g clip-path="url(#clip0_1415_335)">
<path fill-rule="evenodd" clip-rule="evenodd" d="M75.6592 13.2266C76.8646 13.2268 77.6387 14.1907 77.6387 15.6953V15.7041C77.6386 17.2174 76.8733 18.1678 75.6592 18.168C75.0038 18.168 74.4448 17.8467 74.1895 17.332H74.1191V19.6816H73.1641V13.3105H74.1191V14.0625H74.1895C74.4667 13.5389 74.9905 13.2266 75.6592 13.2266ZM75.3906 14.0449C74.5943 14.0449 74.1016 14.6745 74.1016 15.6953V15.7041C74.1017 16.7248 74.5943 17.3535 75.3906 17.3535C76.1869 17.3534 76.6659 16.7291 76.666 15.7041V15.6953C76.666 14.6658 76.187 14.045 75.3906 14.0449Z" fill="white"/>
<path d="M13.4521 11.1035L18.9277 0.0664062H30.7744L28.7734 4.12109H22.877V7.62988H28.9863V11.6523H22.877V15.1602H28.7871L30.8008 19.2148H18.9277L18.9014 8.125L13.4131 19.2148H9.48145V8.07129L3.96582 19.2148H0L9.48145 0.0664062H13.4521V11.1035Z" fill="white"/>
<path d="M33.7393 0.0664062C35.4494 0.0666173 37.1777 1.47607 37.1777 3.25781V16.1035C37.1777 17.6482 35.5548 19.2146 33.7393 19.2148H31.1582L29.1484 15.1602H31.8594C32.7195 15.1602 33.2607 14.7097 33.2607 13.8086V5.47266C33.2605 4.57189 32.7193 4.12109 31.8594 4.12109H29.1484L31.1494 0.0664062H33.7393Z" fill="white"/>
<path fill-rule="evenodd" clip-rule="evenodd" d="M52.0625 13.2148C53.3957 13.2148 54.2148 14.1788 54.2148 15.6133V15.9473H50.8262C50.8439 16.8623 51.3454 17.3944 52.1328 17.3945C52.7445 17.3945 53.1103 17.0912 53.2246 16.8447L53.2422 16.8096L54.1611 16.8057L54.1523 16.8447C53.9938 17.4739 53.3344 18.1777 52.1113 18.1777C50.7122 18.1777 49.8673 17.2234 49.8672 15.71V15.7051C49.8672 14.2137 50.7295 13.215 52.0625 13.2148ZM52.0674 13.998C51.4162 13.998 50.9234 14.4428 50.8398 15.2656H53.2686C53.1938 14.4121 52.7141 13.9981 52.0674 13.998Z" fill="white"/>
<path fill-rule="evenodd" clip-rule="evenodd" d="M62.0391 13.2148C63.3723 13.2148 64.1914 14.1788 64.1914 15.6133V15.9473H60.8027C60.8203 16.8623 61.322 17.3943 62.1094 17.3945C62.7209 17.3945 63.0867 17.0912 63.2012 16.8447L63.2188 16.8096L64.1377 16.8057L64.1289 16.8447C63.9705 17.4739 63.3111 18.1777 62.0879 18.1777C60.6888 18.1777 59.8439 17.2234 59.8438 15.71V15.7051C59.8438 14.2137 60.7061 13.215 62.0391 13.2148ZM62.0439 13.998C61.3927 13.998 60.9 14.4428 60.8164 15.2656H63.2451C63.1703 14.4121 62.6907 13.9981 62.0439 13.998Z" fill="white"/>
<path fill-rule="evenodd" clip-rule="evenodd" d="M69.7695 13.2148C71.1643 13.2149 72.0264 14.1524 72.0264 15.6924V15.7012C72.0262 17.2409 71.1686 18.1777 69.7695 18.1777C68.366 18.1777 67.5079 17.241 67.5078 15.7012V15.6924C67.5078 14.1568 68.3704 13.2148 69.7695 13.2148ZM69.7695 14.0107C68.9468 14.0107 68.4844 14.632 68.4844 15.6924V15.7012C68.4845 16.7614 68.9469 17.3818 69.7695 17.3818C70.5878 17.3818 71.0546 16.7569 71.0547 15.7012V15.6924C71.0547 14.632 70.5879 14.0108 69.7695 14.0107Z" fill="white"/>
<path fill-rule="evenodd" clip-rule="evenodd" d="M88.7891 13.2148C90.1223 13.2148 90.9414 14.1788 90.9414 15.6133V15.9473H87.5527C87.5703 16.8623 88.072 17.3943 88.8594 17.3945C89.4709 17.3945 89.8367 17.0912 89.9512 16.8447L89.9688 16.8096L90.8877 16.8057L90.8789 16.8447C90.7205 17.4739 90.0611 18.1777 88.8379 18.1777C87.4388 18.1777 86.5939 17.2234 86.5938 15.71V15.7051C86.5938 14.2137 87.4561 13.215 88.7891 13.2148ZM88.7939 13.998C88.1427 13.998 87.65 14.4428 87.5664 15.2656H89.9951C89.9203 14.4121 89.4407 13.9981 88.7939 13.998Z" fill="white"/>
<path d="M98.7754 13.3115H99.8008V14.0635H98.7754V16.6025C98.7755 17.1171 98.9687 17.3281 99.4395 17.3281C99.5846 17.3281 99.6688 17.3237 99.8008 17.3105V18.0723C99.6468 18.0986 99.4699 18.1201 99.2852 18.1201C98.2338 18.12 97.8027 17.7505 97.8027 16.8311V14.0635H97.0547V13.3115H97.8027V12.1055H98.7754V13.3115Z" fill="white"/>
<path fill-rule="evenodd" clip-rule="evenodd" d="M45.8936 11.7383C47.7768 11.7383 48.8818 12.9003 48.8818 14.8936V14.9023C48.8817 16.9172 47.7854 18.0879 45.8936 18.0879H43.6016V11.7383H45.8936ZM44.5869 17.2383H45.7842C47.1129 17.2382 47.8779 16.389 47.8779 14.915V14.9062C47.8779 13.4455 47.0996 12.588 45.7842 12.5879H44.5869V17.2383Z" fill="white"/>
<path d="M57.04 17.1191H57.1152L58.3037 13.3086H59.3066L57.582 18.0869H56.5654L54.8359 13.3086H55.8477L57.04 17.1191Z" fill="white"/>
<path d="M66.3223 18.0869H65.3672V11.4336H66.3223V18.0869Z" fill="white"/>
<path d="M83.9727 13.2148C84.936 13.215 85.499 13.7958 85.499 14.79V18.0859H84.5488V15.0186C84.5488 14.3589 84.2495 14.0333 83.625 14.0332C83.018 14.0332 82.6173 14.4863 82.6172 15.0625V18.0859H81.667V14.9219C81.6669 14.3764 81.3102 14.0332 80.7471 14.0332C80.1708 14.0332 79.7443 14.5258 79.7441 15.1504V18.0859H78.7891V13.3076H79.7441V14.042H79.8145C80.0256 13.5186 80.4917 13.215 81.1162 13.2148C81.7674 13.2148 82.2302 13.5536 82.4414 14.0684H82.5156C82.7577 13.5536 83.3083 13.2148 83.9727 13.2148Z" fill="white"/>
<path d="M94.4893 13.2148C95.5584 13.2148 96.1484 13.8528 96.1484 14.9922V18.0859H95.1982V15.2168C95.1982 14.4248 94.8676 14.0332 94.168 14.0332C93.4685 14.0333 93.0332 14.5133 93.0332 15.2832V18.0859H92.0781V13.3076H93.0332V14.0332H93.1035C93.3367 13.5229 93.7941 13.2149 94.4893 13.2148Z" fill="white"/>
<path fill-rule="evenodd" clip-rule="evenodd" d="M53.4297 1.95312C54.7629 1.95312 55.582 2.91715 55.582 4.35156V4.68555H52.1934C52.2109 5.60061 52.7126 6.13265 53.5 6.13281C54.1116 6.13281 54.4774 5.82941 54.5918 5.58301L54.6094 5.54785L55.5283 5.54395L55.5195 5.58301C55.3612 6.21219 54.7016 6.91597 53.4785 6.91602C52.0794 6.91602 51.2345 5.96167 51.2344 4.44824V4.44336C51.2344 2.95195 52.0967 1.95326 53.4297 1.95312ZM53.4346 2.73633C52.7834 2.73633 52.2906 3.1811 52.207 4.00391H54.6357C54.561 3.1504 54.0814 2.73642 53.4346 2.73633Z" fill="white"/>
<path fill-rule="evenodd" clip-rule="evenodd" d="M63.5195 1.95312C64.9142 1.95318 65.7764 2.89071 65.7764 4.43066V4.43945C65.7762 5.97922 64.9186 6.91596 63.5195 6.91602C62.116 6.91602 61.2579 5.97926 61.2578 4.43945V4.43066C61.2578 2.89506 62.1203 1.95312 63.5195 1.95312ZM63.5195 2.75C62.6967 2.75 62.2344 3.37027 62.2344 4.43066V4.43945C62.2345 5.49966 62.6968 6.12012 63.5195 6.12012C64.3377 6.12005 64.8036 5.49521 64.8037 4.43945V4.43066C64.8037 3.37032 64.3378 2.75006 63.5195 2.75Z" fill="white"/>
<path d="M57.7129 6.82422H56.7578V0.171875H57.7129V6.82422Z" fill="white"/>
<path d="M60.1084 6.82422H59.1582V2.0459H60.1084V6.82422Z" fill="white"/>
<path d="M69.1934 1.96094C69.3473 1.96095 69.5146 1.98289 69.6113 2.00488V2.88477C69.4398 2.84958 69.2769 2.82814 69.0967 2.82812C68.3663 2.82812 67.8691 3.27697 67.8691 3.96777V6.82324H66.9141V2.04492H67.8691V2.7666H67.9395C68.1111 2.2606 68.5554 1.96094 69.1934 1.96094Z" fill="white"/>
<path d="M46.7607 5.53711H46.8311L48.8555 0.472656H49.9902V6.82227H49.0928V2.16211H49.0264L47.1611 6.82227H46.4307L44.5693 2.16211H44.499V6.82227H43.6016V0.472656H44.7363L46.7607 5.53711Z" fill="white"/>
<path d="M59.6377 0C59.9632 0.000157242 60.2363 0.268728 60.2363 0.598633C60.2362 0.924034 59.9631 1.19223 59.6377 1.19238C59.3078 1.19238 59.0392 0.92413 59.0391 0.598633C59.0391 0.268631 59.3078 0 59.6377 0Z" fill="white"/>
</g>
<defs>
<clipPath id="clip0_1415_335">
<rect width="100.25" height="20.2753" fill="white"/>
</clipPath>
</defs>
</svg>
