<svg width="91" height="16" viewBox="0 0 91 16" fill="none" xmlns="http://www.w3.org/2000/svg">
<g clip-path="url(#clip0_1415_250)">
<path d="M10.0381 10.5V14.3799H7.98438V9.92969L10.0381 10.5ZM31.6631 2.85547C32.4684 2.85547 33.104 3.00307 33.5693 3.29883C34.0436 3.58536 34.3793 4.00158 34.5762 4.54688C34.782 5.08306 34.8848 5.73563 34.8848 6.50293V10.6904C34.8848 11.4575 34.7819 12.1184 34.5762 12.6729C34.3793 13.2183 34.0437 13.6397 33.5693 13.9355C33.104 14.2313 32.4684 14.3789 31.6631 14.3789C30.8668 14.3789 30.2358 14.2313 29.7705 13.9355C29.3052 13.6397 28.9695 13.2183 28.7637 12.6729C28.567 12.1184 28.4688 11.4574 28.4688 10.6904V6.50293C28.4688 5.73563 28.5668 5.07863 28.7637 4.5332C28.9695 3.98782 29.3052 3.57174 29.7705 3.28516C30.2358 2.99861 30.8668 2.8555 31.6631 2.85547ZM47.1084 2.85547C47.9136 2.85547 48.5493 3.00307 49.0146 3.29883C49.4888 3.58536 49.8245 4.00158 50.0215 4.54688C50.2273 5.08306 50.3301 5.73563 50.3301 6.50293V10.6904C50.3301 11.4575 50.2272 12.1184 50.0215 12.6729C49.8246 13.2183 49.4889 13.6397 49.0146 13.9355C48.5493 14.2313 47.9136 14.3789 47.1084 14.3789C46.3121 14.3789 45.6811 14.2313 45.2158 13.9355C44.7505 13.6397 44.4148 13.2183 44.209 12.6729C44.0123 12.1184 43.9141 11.4574 43.9141 10.6904V6.50293C43.9141 5.73563 44.0122 5.07863 44.209 4.5332C44.4148 3.98782 44.7506 3.57174 45.2158 3.28516C45.6811 2.99861 46.3121 2.8555 47.1084 2.85547ZM59.126 2.85547C59.9045 2.85547 60.5137 2.98972 60.9521 3.25781C61.3994 3.52588 61.7127 3.90471 61.8916 4.39453C62.0795 4.8845 62.1738 5.45346 62.1738 6.10059V7.04297H60.0254V5.98926C60.0254 5.73054 60.0122 5.49033 59.9854 5.26855C59.9586 5.03745 59.8822 4.85253 59.7568 4.71387C59.6406 4.56601 59.4349 4.49219 59.1396 4.49219C58.8445 4.49223 58.6293 4.566 58.4951 4.71387C58.3612 4.86172 58.276 5.05577 58.2402 5.2959C58.2045 5.52692 58.1865 5.7858 58.1865 6.07227V11.1758C58.1865 11.4901 58.2092 11.7675 58.2539 12.0078C58.3077 12.2388 58.402 12.4194 58.5361 12.5488C58.6793 12.6687 58.8805 12.7285 59.1396 12.7285C59.4259 12.7285 59.6278 12.6592 59.7441 12.5205C59.8692 12.3726 59.9448 12.1785 59.9717 11.9385C60.0075 11.6982 60.0254 11.4438 60.0254 11.1758V10.0801H62.1738V11.0088C62.1738 11.6651 62.0842 12.2484 61.9053 12.7568C61.7262 13.256 61.4169 13.6534 60.9785 13.9492C60.54 14.2356 59.9222 14.3789 59.126 14.3789C58.3209 14.3788 57.6812 14.2215 57.207 13.9072C56.7417 13.5929 56.4155 13.1582 56.2275 12.6035C56.0396 12.0397 55.9453 11.3879 55.9453 10.6484V6.61328C55.9453 5.83678 56.0396 5.17086 56.2275 4.61621C56.4155 4.05257 56.7419 3.61847 57.207 3.31348C57.6812 3.00846 58.3209 2.85553 59.126 2.85547ZM79.7725 2.85547C80.5778 2.85547 81.2134 3.00307 81.6787 3.29883C82.1529 3.58536 82.4887 4.00156 82.6855 4.54688C82.8914 5.08306 82.9941 5.73563 82.9941 6.50293V10.6904C82.9941 11.4575 82.8913 12.1184 82.6855 12.6729C82.4887 13.2183 82.1529 13.6397 81.6787 13.9355C81.2134 14.2313 80.5777 14.3789 79.7725 14.3789C78.9762 14.3789 78.3452 14.2313 77.8799 13.9355C77.4146 13.6397 77.0789 13.2183 76.873 12.6729C76.6762 12.1184 76.5781 11.4574 76.5781 10.6904V6.50293C76.5781 5.73563 76.6761 5.07863 76.873 4.5332C77.0789 3.98779 77.4146 3.57174 77.8799 3.28516C78.3452 2.9986 78.9761 2.85549 79.7725 2.85547ZM10.042 2.5332V3.53711L14.6064 5.64844V14.3779H12.5518V7.21191L10.042 6.04785V8.78613L7.9873 8.21582V4.09668L4.56445 2.51074V14.3779H0V2.11133L4.56445 0L10.042 2.5332ZM22.8242 7.61328H24.7432V2.99609H26.958V14.2285H24.7432V9.25H22.8242V14.2285H20.6094V2.99609H22.8242V7.61328ZM39.1191 2.99609C39.5933 2.99611 40.032 3.03791 40.4346 3.12109C40.8371 3.2043 41.1909 3.35188 41.4951 3.56445C41.8082 3.77707 42.0451 4.0732 42.2061 4.45215C42.3761 4.82193 42.4609 5.30733 42.4609 5.9082C42.4609 6.36116 42.3987 6.74971 42.2734 7.07324C42.1481 7.38736 41.9688 7.63645 41.7363 7.82129C41.5036 8.00618 41.217 8.13158 40.877 8.19629C41.2974 8.26099 41.6511 8.40863 41.9375 8.63965C42.2237 8.8707 42.4389 9.17581 42.582 9.55469C42.7252 9.93368 42.7969 10.3916 42.7969 10.9277C42.7969 11.4916 42.7251 11.9815 42.582 12.3975C42.4478 12.8135 42.2459 13.1557 41.9775 13.4238C41.7091 13.6919 41.3781 13.8956 40.9844 14.0342C40.5907 14.1636 40.1342 14.2285 39.6152 14.2285H36.3672V2.99609H39.1191ZM68.4238 4.70215H66.7734V14.2285H64.5449V4.70215H62.8672V2.99609H68.4238V4.70215ZM72.7852 2.99609C73.4384 2.99609 73.9712 3.12592 74.3828 3.38477C74.7943 3.63433 75.099 3.99893 75.2959 4.47949C75.5017 4.96022 75.6045 5.54343 75.6045 6.22754C75.6044 7.03159 75.4695 7.66038 75.2012 8.11328C74.9417 8.56603 74.5841 8.88991 74.1279 9.08398C73.6716 9.26884 73.1481 9.36131 72.5576 9.36133H71.5508V14.2285H69.3359V2.99609H72.7852ZM86.2715 9.7207L89.1445 2.99512H90.5938V14.2275H88.7949V7.39062L85.8955 14.2275H84.5V2.99512H86.2715V9.7207ZM31.6631 4.49219C31.3948 4.49224 31.1937 4.56158 31.0596 4.7002C30.9254 4.82958 30.8358 5.00483 30.791 5.22656C30.7463 5.44843 30.7236 5.68939 30.7236 5.94824V11.2588C30.7236 11.5177 30.7416 11.7631 30.7773 11.9941C30.822 12.2158 30.9119 12.3956 31.0459 12.5342C31.1801 12.6636 31.3858 12.7285 31.6631 12.7285C31.9495 12.7285 32.1597 12.6636 32.2939 12.5342C32.4281 12.3956 32.5177 12.2158 32.5625 11.9941C32.6072 11.7631 32.6299 11.5177 32.6299 11.2588V5.94824C32.6299 5.68939 32.6072 5.44843 32.5625 5.22656C32.5177 5.00481 32.4281 4.82958 32.2939 4.7002C32.1597 4.56153 31.9495 4.49219 31.6631 4.49219ZM47.1084 4.49219C46.84 4.49224 46.6391 4.56158 46.5049 4.7002C46.3708 4.82958 46.281 5.0048 46.2363 5.22656C46.1915 5.44843 46.1689 5.68939 46.1689 5.94824V11.2588C46.1689 11.5177 46.1869 11.7631 46.2227 11.9941C46.2673 12.2158 46.3571 12.3956 46.4912 12.5342C46.6254 12.6636 46.8311 12.7285 47.1084 12.7285C47.3947 12.7285 47.605 12.6636 47.7393 12.5342C47.8734 12.3956 47.9631 12.2158 48.0078 11.9941C48.0526 11.7631 48.0752 11.5177 48.0752 11.2588V5.94824C48.0752 5.68939 48.0526 5.44843 48.0078 5.22656C47.9631 5.0048 47.8734 4.82958 47.7393 4.7002C47.605 4.56153 47.3947 4.49219 47.1084 4.49219ZM79.7725 4.49219C79.5041 4.49222 79.3032 4.56156 79.1689 4.7002C79.0348 4.82958 78.9452 5.00481 78.9004 5.22656C78.8557 5.44843 78.833 5.68939 78.833 5.94824V11.2588C78.833 11.5177 78.8509 11.7631 78.8867 11.9941C78.9315 12.2157 79.0212 12.3956 79.1553 12.5342C79.2894 12.6636 79.4952 12.7285 79.7725 12.7285C80.0589 12.7285 80.2692 12.6636 80.4033 12.5342C80.5374 12.3956 80.6271 12.2158 80.6719 11.9941C80.7166 11.7631 80.7393 11.5177 80.7393 11.2588V5.94824C80.7393 5.68939 80.7166 5.44843 80.6719 5.22656C80.6271 5.00483 80.5375 4.82958 80.4033 4.7002C80.2692 4.56153 80.0589 4.49219 79.7725 4.49219ZM38.582 12.6201H39.1992C39.754 12.6201 40.134 12.4761 40.3398 12.1895C40.5545 11.9029 40.6621 11.4735 40.6621 10.9004C40.6621 10.4568 40.6129 10.1055 40.5146 9.84668C40.4162 9.57859 40.255 9.38385 40.0312 9.26367C39.8165 9.13441 39.5258 9.06934 39.1592 9.06934H38.582V12.6201ZM54.8281 10.8438H51.4453V9.45703H54.8281V10.8438ZM71.5508 7.75195H72.3291C72.6513 7.75195 72.8973 7.7013 73.0674 7.59961C73.2462 7.4887 73.367 7.31792 73.4297 7.08691C73.4923 6.85579 73.5234 6.55976 73.5234 6.19922C73.5234 5.85735 73.497 5.57089 73.4434 5.33984C73.3986 5.10874 73.2911 4.92825 73.1211 4.79883C72.9511 4.6694 72.6823 4.60449 72.3154 4.60449H71.5508V7.75195ZM38.582 7.53027H39.1318C39.5166 7.53027 39.8081 7.4752 40.0049 7.36426C40.2017 7.24408 40.3357 7.068 40.4072 6.83691C40.4877 6.59666 40.5283 6.3057 40.5283 5.96387C40.5283 5.62182 40.4699 5.34889 40.3535 5.14551C40.2462 4.9329 40.0764 4.77994 39.8438 4.6875C39.62 4.59507 39.3333 4.54883 38.9844 4.54883H38.582V7.53027ZM86.8359 0C86.8359 0.332804 86.9029 0.587049 87.0371 0.762695C87.1714 0.929008 87.3997 1.0127 87.7217 1.0127C88.0346 1.01264 88.2584 0.924537 88.3926 0.749023C88.5357 0.573377 88.6074 0.323559 88.6074 0H89.748C89.748 0.665609 89.5689 1.18296 89.2109 1.55273C88.853 1.91321 88.3569 2.0937 87.7217 2.09375C87.0864 2.09375 86.5847 1.91328 86.2178 1.55273C85.8601 1.18298 85.6816 0.665415 85.6816 0H86.8359Z" fill="white"/>
</g>
<defs>
<clipPath id="clip0_1415_250">
<rect width="91" height="15.3371" fill="white"/>
</clipPath>
</defs>
</svg>
