<svg width="55" height="23" viewBox="0 0 55 23" fill="none" xmlns="http://www.w3.org/2000/svg">
<g clip-path="url(#clip0_1415_306)">
<path d="M46.5605 17.8438C46.9211 17.8438 47.2548 17.8771 47.5615 17.9434C47.8678 18.0097 48.1294 18.1047 48.3438 18.2285L47.7334 19.1709C47.5467 19.0602 47.3371 18.9753 47.1045 18.918C46.8717 18.86 46.6291 18.8311 46.3789 18.8311C46.0952 18.8311 45.8681 18.8713 45.6992 18.9521C45.5306 19.0332 45.44 19.1391 45.4277 19.2666C45.4172 19.378 45.4793 19.4629 45.6133 19.5225C45.7472 19.5821 45.9573 19.6463 46.2441 19.7148C46.5643 19.7874 46.8282 19.8624 47.0352 19.9395C47.2421 20.0164 47.4156 20.134 47.5547 20.292C47.6939 20.4502 47.7513 20.658 47.7266 20.9141C47.6962 21.2301 47.5693 21.5087 47.3467 21.75C47.1239 21.9912 46.8224 22.1793 46.4414 22.3115C46.0605 22.4437 45.6265 22.5098 45.1406 22.5098C44.7223 22.5097 44.3287 22.4654 43.9619 22.376C43.5953 22.2866 43.3008 22.1708 43.0781 22.0303L43.7314 21.0811C43.9726 21.2261 44.2341 21.3363 44.5156 21.4111C44.7971 21.4859 45.0829 21.5234 45.3711 21.5234C45.6595 21.5234 45.8623 21.4872 46.0205 21.417C46.1787 21.3466 46.2645 21.2497 46.2764 21.126C46.2864 21.0191 46.225 20.9361 46.0938 20.876C45.9625 20.8164 45.7557 20.7522 45.4736 20.6836C45.1533 20.6066 44.8889 20.5285 44.6797 20.4492C44.4705 20.3704 44.295 20.2495 44.1543 20.0869C44.0137 19.9245 43.9559 19.7114 43.9814 19.4463C44.0118 19.1258 44.1371 18.8448 44.3574 18.6035C44.5779 18.3622 44.8772 18.1742 45.2559 18.042C45.6339 17.9099 46.0691 17.8438 46.5605 17.8438Z" fill="white"/>
<path fill-rule="evenodd" clip-rule="evenodd" d="M16.7402 17.9336C17.3948 17.9336 17.8871 18.0605 18.2197 18.3125C18.5518 18.5644 18.6964 18.9189 18.6533 19.376C18.6174 19.7522 18.4836 20.0816 18.252 20.3633C18.0204 20.6451 17.7085 20.864 17.3164 21.0176C16.9237 21.1717 16.4769 21.248 15.9766 21.248H14.9658L14.5938 22.4209H13.1641L14.5732 17.9336H16.7402ZM15.2842 20.248H16.1367C16.454 20.248 16.7044 20.1809 16.8877 20.0488C17.071 19.9167 17.1746 19.7287 17.1982 19.4854C17.2155 19.3015 17.1598 19.1629 17.0312 19.0713C16.9028 18.9798 16.711 18.9336 16.4561 18.9336H15.7051L15.2842 20.248Z" fill="white"/>
<path fill-rule="evenodd" clip-rule="evenodd" d="M23.417 22.4209H21.9951L21.876 21.5488H19.7246L19.0557 22.4209H17.5469L21.2168 17.9336H22.625L23.417 22.4209ZM20.4414 20.6123H21.748L21.5479 19.1572L20.4414 20.6123Z" fill="white"/>
<path fill-rule="evenodd" clip-rule="evenodd" d="M27.4336 17.9336C28.0786 17.9336 28.5674 18.0596 28.8994 18.3115C29.2314 18.5635 29.3757 18.9144 29.333 19.3633C29.2937 19.7731 29.1378 20.1269 28.8643 20.4238C28.5905 20.7208 28.2249 20.9376 27.7695 21.0742L28.5 22.4209H27.0059L26.3682 21.2285H25.6465L25.2656 22.4209H23.8359L25.2744 17.9336H27.4336ZM25.957 20.2471H26.8086C27.1261 20.2471 27.3782 20.181 27.5645 20.0488C27.7501 19.9167 27.8549 19.7279 27.8779 19.4844C27.8953 19.3007 27.8385 19.163 27.708 19.0713C27.5773 18.9796 27.386 18.9336 27.1357 18.9336H26.3848L25.957 20.2471Z" fill="white"/>
<path fill-rule="evenodd" clip-rule="evenodd" d="M34.4404 22.4209H33.0186L32.8994 21.5488H30.748L30.0791 22.4209H28.5703L32.2402 17.9336H33.6484L34.4404 22.4209ZM31.4648 20.6123H32.7715L32.5713 19.1572L31.4648 20.6123Z" fill="white"/>
<path fill-rule="evenodd" clip-rule="evenodd" d="M38.4922 17.9336C39.0123 17.9336 39.4554 18.0092 39.8213 18.1611C40.187 18.313 40.4589 18.5313 40.6367 18.8154C40.8137 19.0993 40.8841 19.4343 40.8477 19.8184C40.7977 20.3396 40.6209 20.7973 40.3164 21.1904C40.0119 21.5833 39.6112 21.8859 39.1143 22.0996C38.6172 22.3135 38.0603 22.4209 37.4443 22.4209H34.8594L36.2969 17.9336H38.4922ZM36.6172 21.4072H37.584C37.9306 21.4072 38.2368 21.3423 38.502 21.2119C38.7671 21.0814 38.975 20.902 39.127 20.6738C39.2789 20.4455 39.3684 20.1854 39.3965 19.8945C39.4256 19.5913 39.3414 19.3572 39.1455 19.1924C38.9492 19.0283 38.647 18.9454 38.2383 18.9453H37.4004L36.6172 21.4072Z" fill="white"/>
<path d="M42.25 22.4209H40.8203L42.2588 17.9336H43.6885L42.25 22.4209Z" fill="white"/>
<path d="M53.0156 18.915L50.4668 18.9131L50.2285 19.6699H52.4736L52.1748 20.6191H49.9209L49.6631 21.4395H52.2275L51.9121 22.4209H47.9375L49.376 17.9336H53.333L53.0156 18.915Z" fill="white"/>
<path d="M8.64453 22.4014H0L1.41406 17.9219H10.0752L8.64453 22.4014Z" fill="white"/>
<path d="M27.2783 14.457C27.6032 14.457 27.8517 14.5577 27.9639 14.7383L27.7422 14.8984C27.6441 14.7619 27.4738 14.6875 27.2305 14.6875C26.6736 14.6877 26.2812 15.074 26.2256 15.5283C26.1852 15.8563 26.3919 16.0762 26.834 16.0762C27.0717 16.0761 27.2816 16.0035 27.4531 15.8613L27.5947 16.0322C27.3905 16.2154 27.0996 16.3056 26.7861 16.3057C26.1954 16.3057 25.8884 15.9957 25.9434 15.5439L25.9443 15.543C26.0179 14.9417 26.5452 14.4571 27.2783 14.457Z" fill="white"/>
<path fill-rule="evenodd" clip-rule="evenodd" d="M34.0352 14.9023C34.4354 14.9025 34.6707 15.1246 34.626 15.4932C34.618 15.5578 34.6019 15.6199 34.584 15.6768H33.3662L33.3652 15.6758L33.3633 15.6914C33.3324 15.9417 33.467 16.081 33.7861 16.0811C33.9707 16.0811 34.1463 16.0194 34.2646 15.9238L34.3574 16.1025C34.1964 16.2288 33.9637 16.2988 33.7373 16.2988C33.2976 16.2988 33.0544 16.0661 33.0986 15.7051C33.1554 15.2405 33.5503 14.9023 34.0352 14.9023ZM33.998 15.1084C33.7349 15.1084 33.5116 15.2578 33.415 15.4951H34.373C34.4173 15.2451 34.2609 15.1085 33.998 15.1084Z" fill="white"/>
<path d="M37.5518 14.916H37.9775L37.9082 15.1201H37.4824L37.2344 15.8477C37.2254 15.8736 37.2196 15.8968 37.2168 15.9199C37.2039 16.0256 37.2585 16.0908 37.3926 16.0908C37.4653 16.0908 37.5462 16.067 37.6123 16.0254L37.6455 16.2139C37.5368 16.2784 37.4088 16.2988 37.291 16.2988C37.0588 16.2988 36.9141 16.1703 36.9404 15.9561C36.9443 15.9253 36.9515 15.8894 36.9639 15.8535L37.2139 15.1201H36.9619L37.0283 14.916H37.2832L37.3848 14.6172H37.6533L37.5518 14.916Z" fill="white"/>
<path fill-rule="evenodd" clip-rule="evenodd" d="M28.835 14.9023C29.0895 14.9024 29.2641 14.9872 29.3398 15.1475L29.4189 14.915H29.6875L29.2256 16.2822H28.9678L29.0244 16.1143C28.8786 16.2301 28.6912 16.2979 28.4785 16.2979C28.1005 16.2977 27.85 16.0754 27.8955 15.707C27.9534 15.2375 28.3537 14.9023 28.835 14.9023ZM28.8193 15.1182C28.4862 15.1182 28.2105 15.3584 28.1689 15.6963C28.1398 15.9365 28.2819 16.081 28.5645 16.0811C28.9006 16.0811 29.1739 15.8409 29.2148 15.5029C29.2445 15.2606 29.1021 15.1182 28.8193 15.1182Z" fill="white"/>
<path fill-rule="evenodd" clip-rule="evenodd" d="M38.9678 14.9023C39.2223 14.9024 39.3969 14.9872 39.4727 15.1475L39.5518 14.915H39.8203L39.3584 16.2822H39.1006L39.1572 16.1143C39.0114 16.2301 38.824 16.2979 38.6113 16.2979C38.2333 16.2977 37.9828 16.0754 38.0283 15.707C38.0862 15.2375 38.4865 14.9023 38.9678 14.9023ZM38.9521 15.1182C38.619 15.1182 38.3434 15.3584 38.3018 15.6963C38.2726 15.9365 38.4147 16.081 38.6973 16.0811C39.0334 16.0811 39.3067 15.8409 39.3477 15.5029C39.3772 15.2606 39.2349 15.1182 38.9521 15.1182Z" fill="white"/>
<path fill-rule="evenodd" clip-rule="evenodd" d="M50.2871 15.0713C50.4317 14.9629 50.61 14.9015 50.8174 14.9014C51.1956 14.9014 51.4459 15.1212 51.4004 15.4902C51.3431 15.9596 50.9436 16.2977 50.4619 16.2979C50.1988 16.2979 50.022 16.2046 49.9502 16.0342L49.8643 16.2822H49.6094L50.2588 14.3672H50.5273L50.2871 15.0713ZM50.7324 15.1182C50.3963 15.1182 50.123 15.3583 50.082 15.6963C50.0528 15.9366 50.1947 16.0811 50.4775 16.0811C50.8107 16.081 51.0869 15.8409 51.1279 15.5029C51.1576 15.2606 51.0155 15.1183 50.7324 15.1182Z" fill="white"/>
<path fill-rule="evenodd" clip-rule="evenodd" d="M52.6006 14.9023C52.8551 14.9024 53.0298 14.9872 53.1055 15.1475L53.1846 14.915H53.4531L52.9912 16.2822H52.7334L52.79 16.1143C52.6442 16.2301 52.4568 16.2979 52.2441 16.2979C51.8662 16.2977 51.6157 16.0754 51.6611 15.707C51.719 15.2375 52.1193 14.9023 52.6006 14.9023ZM52.585 15.1182C52.2519 15.1182 51.9762 15.3584 51.9346 15.6963C51.9054 15.9365 52.0475 16.081 52.3301 16.0811C52.6662 16.0811 52.9395 15.8409 52.9805 15.5029C53.0101 15.2606 52.8677 15.1182 52.585 15.1182Z" fill="white"/>
<path d="M48.1055 15.6826C48.0921 15.7237 48.0826 15.7629 48.0781 15.7988C48.0568 15.9743 48.1558 16.0751 48.3828 16.0752C48.6628 16.0752 48.8796 15.93 48.9795 15.6387L49.2256 14.9141L49.4941 14.915L49.0322 16.2822H48.7744L48.832 16.1064C48.6789 16.2352 48.4841 16.2968 48.2773 16.2969C47.9526 16.2969 47.765 16.1297 47.8008 15.8379C47.8069 15.7891 47.8191 15.7372 47.8369 15.6807L48.0967 14.9141H48.3652L48.1055 15.6826Z" fill="white"/>
<path d="M41.8857 16.2842H41.6172L42.0791 14.917H42.3477L41.8857 16.2842Z" fill="white"/>
<path d="M53.8467 16.2842H53.5781L54.04 14.917H54.3086L53.8467 16.2842Z" fill="white"/>
<path d="M30.9912 15.1426C30.9666 15.1397 30.9498 15.1396 30.9219 15.1396C30.6251 15.1396 30.4111 15.2846 30.3057 15.5996L30.0732 16.2832H29.8047L30.2666 14.916H30.5244L30.457 15.1191C30.6099 14.9648 30.8048 14.9036 31.0703 14.9033L30.9912 15.1426Z" fill="white"/>
<path d="M33.0303 15.1426C33.0057 15.1397 32.9889 15.1396 32.9609 15.1396C32.6641 15.1396 32.4502 15.2846 32.3447 15.5996L32.1123 16.2832H31.8438L32.3057 14.916H32.5635L32.4961 15.1191C32.6489 14.9648 32.8439 14.9036 33.1094 14.9033L33.0303 15.1426Z" fill="white"/>
<path d="M36.0342 14.9023C36.3702 14.9023 36.5515 15.066 36.5156 15.3574C36.5093 15.4062 36.4979 15.46 36.4795 15.5166L36.2197 16.2832H35.9512L36.2109 15.5166C36.2243 15.4757 36.2338 15.437 36.2383 15.4033C36.2602 15.2251 36.1607 15.1251 35.9287 15.125C35.6403 15.125 35.4265 15.2664 35.3262 15.5605L35.0811 16.2832H34.8125L35.2744 14.915H35.5322L35.4736 15.0908C35.6268 14.9621 35.8216 14.9024 36.0342 14.9023Z" fill="white"/>
<path d="M43.6904 14.9023C44.0266 14.9023 44.2078 15.066 44.1719 15.3574C44.1657 15.4062 44.1541 15.46 44.1357 15.5166L43.876 16.2832H43.6074L43.8672 15.5166C43.8806 15.4757 43.89 15.437 43.8945 15.4033C43.9163 15.2251 43.817 15.1251 43.585 15.125C43.2966 15.125 43.0829 15.2664 42.9824 15.5605L42.7373 16.2832H42.4688L42.9307 14.915H43.1875L43.1299 15.0908C43.2829 14.9621 43.478 14.9024 43.6904 14.9023Z" fill="white"/>
<path fill-rule="evenodd" clip-rule="evenodd" d="M46.6934 14.4766C47.2867 14.4766 47.595 14.7684 47.54 15.2178C47.4619 15.8548 46.9221 16.2832 46.1885 16.2832H45.3125L45.9258 14.4766H46.6934ZM45.668 16.0586H46.2246C46.8012 16.0586 47.1966 15.71 47.2549 15.2324C47.2946 14.9074 47.0934 14.7012 46.6367 14.7012H46.1279L45.668 16.0586Z" fill="white"/>
<path d="M40.2061 16.2822H39.9375L40.5869 14.3672H40.8555L40.2061 16.2822Z" fill="white"/>
<path d="M42.3887 14.332C42.4868 14.3321 42.5516 14.399 42.542 14.4766C42.5291 14.5823 42.4386 14.6552 42.3242 14.6553C42.2261 14.6553 42.1647 14.5875 42.1748 14.5049C42.1865 14.4093 42.2742 14.332 42.3887 14.332Z" fill="white"/>
<path d="M54.3496 14.332C54.4477 14.3321 54.5125 14.399 54.5029 14.4766C54.49 14.5823 54.3995 14.6552 54.2852 14.6553C54.187 14.6553 54.1247 14.5875 54.1348 14.5049C54.1465 14.4093 54.2352 14.332 54.3496 14.332Z" fill="white"/>
<path d="M24.418 8.93359C23.3549 11.5469 20.4713 13.4208 17.0801 13.4209H2.84375L4.26562 8.94922L24.418 8.93359Z" fill="white"/>
<path d="M17.1113 0C20.4892 0 23.3643 1.85947 24.4375 4.45703H5.70312L7.09766 0H17.1113Z" fill="white"/>
</g>
<defs>
<clipPath id="clip0_1415_306">
<rect width="54.5" height="22.5109" fill="white"/>
</clipPath>
</defs>
</svg>
