<svg width="92" height="28" viewBox="0 0 92 28" fill="none" xmlns="http://www.w3.org/2000/svg">
<g clip-path="url(#clip0_1415_423)">
<path d="M7.27246 23.7734V28L4.72754 26.6621V22.4355L7.27246 23.7734Z" fill="white"/>
<path d="M9.4209 6.15039L9.4248 6.15137L11.8086 6.77734H11.8115L11.9697 6.81934L12.9443 7.0752L12.9492 7.07715L14.3633 7.44824V11.2539L11.9697 11.8818V9.24902L8.32129 8.29102L8.31934 8.29004L7.18555 7.99219L7.18262 7.99121L2.55469 9.20508L2.39355 9.24707V17.5537L2.96094 17.874L2.96289 17.875L7.17871 20.2607L7.18164 20.2627V20.2588L11.9697 17.5498V15.5117L14.3633 14.8838V18.9121L9.58203 21.6172L9.57617 21.6143V21.6211L7.18359 22.9746L7.18164 22.9736L4.78809 21.6191V21.6133L4.78223 21.6162L2.39355 20.2646V20.2676L0 18.9131V7.45117L2.39355 6.82227L3.22363 6.60449L3.23828 6.60059L3.2998 6.58398L7.18164 5.56641L7.18848 5.56445L9.4209 6.15039Z" fill="white"/>
<path d="M7.14062 0.630859V0.632812L7.14453 0.631836L11.8076 1.84961L11.9668 1.8916L16.4688 3.06738L16.4766 3.06934L18 3.46777V13.2969L7.14062 16.1338V19.5645L4.85742 18.2783L4.72754 18.2061V9.16699L7.14062 8.53809V13.6982L13.4453 12.0527L13.5078 12.0361L15.5869 11.4941V5.27246L14.0664 4.875L14.0596 4.87402L11.9668 4.32715L11.8125 4.28613L11.8066 4.28516L7.14453 3.06738L7.14062 3.06641V4.90527L4.72754 5.53516V0L7.14062 0.630859Z" fill="white"/>
<path d="M34.3086 15.7227H34.4199L36.0078 10.6367H37.3438L34.9766 17.2461C34.4375 18.7637 33.793 19.2383 32.5039 19.2383C32.3457 19.2383 32.1582 19.2266 31.9941 19.209V18.207C32.1172 18.2246 32.2754 18.2305 32.4219 18.2305C33.0137 18.2305 33.3711 17.9785 33.5586 17.334L33.6523 17.0059L31.3438 10.6367H32.7148L34.3086 15.7227Z" fill="white"/>
<path fill-rule="evenodd" clip-rule="evenodd" d="M68.1699 10.5254C69.7754 10.5254 70.8066 11.8086 70.8066 13.8125V13.8242C70.8066 15.8398 69.7871 17.1055 68.1699 17.1055C67.2969 17.1055 66.5527 16.6777 66.2129 15.9922H66.1191V19.1211H64.8477V10.6367H66.1191V11.6387H66.2129C66.582 10.9414 67.2793 10.5254 68.1699 10.5254ZM67.8125 11.6152C66.752 11.6152 66.0957 12.4531 66.0957 13.8125V13.8242C66.0957 15.1836 66.752 16.0215 67.8125 16.0215C68.873 16.0215 69.5117 15.1895 69.5117 13.8242V13.8125C69.5117 12.4414 68.873 11.6152 67.8125 11.6152Z" fill="white"/>
<path fill-rule="evenodd" clip-rule="evenodd" d="M52.4961 8.33984C54.9277 8.33984 56.4394 10.0508 56.4395 12.7637V12.7754C56.4395 15.4824 54.9395 17.2051 52.4961 17.2051C50.0352 17.2051 48.5469 15.4883 48.5469 12.7754V12.7637C48.5469 10.0449 50.0703 8.33985 52.4961 8.33984ZM52.4961 9.5C50.8965 9.5 49.8887 10.7656 49.8887 12.7637V12.7754C49.8887 14.7559 50.8672 16.0449 52.4961 16.0449C54.1016 16.0449 55.0977 14.7559 55.0977 12.7754V12.7637C55.0976 10.7656 54.0957 9.5 52.4961 9.5Z" fill="white"/>
<path d="M41.1758 10.5137C42.7754 10.5137 43.7306 11.416 43.9062 12.6523V12.6816L42.6875 12.6875L42.6816 12.6699C42.541 12.043 42.0254 11.5742 41.1816 11.5742C40.1212 11.5742 39.4824 12.418 39.4824 13.7891V13.8008C39.4824 15.207 40.1328 16.0625 41.1816 16.0625C41.9785 16.0625 42.4707 15.6992 42.6758 15.0137L42.6875 14.9844H43.9062L43.8945 15.0371C43.666 16.2734 42.7578 17.123 41.1816 17.123C39.3242 17.123 38.1875 15.8574 38.1875 13.8008V13.7891C38.1875 11.7734 39.3184 10.5137 41.1758 10.5137Z" fill="white"/>
<path fill-rule="evenodd" clip-rule="evenodd" d="M74.9434 10.5137C76.543 10.5137 77.4453 11.3105 77.4453 12.6465V17H76.1855V16.0977H76.0859C75.7109 16.7422 75.043 17.1055 74.1992 17.1055C72.9863 17.1055 72.0898 16.3672 72.0898 15.2129V15.2012C72.0899 14.0645 72.9453 13.4023 74.4629 13.3086L76.1855 13.209V12.6465C76.1855 11.9492 75.7461 11.5625 74.8848 11.5625C74.1816 11.5625 73.7188 11.8203 73.5664 12.2715L73.5605 12.2949H72.3359L72.3418 12.2539C72.4941 11.2109 73.4961 10.5137 74.9434 10.5137ZM74.6328 14.2051C73.7539 14.2578 73.3555 14.5742 73.3555 15.1484V15.1602C73.3555 15.746 73.8535 16.0918 74.5391 16.0918C75.4883 16.0918 76.1855 15.4707 76.1855 14.6504V14.1055L74.6328 14.2051Z" fill="white"/>
<path fill-rule="evenodd" clip-rule="evenodd" d="M89.2051 10.5137C90.8047 10.5137 91.707 11.3105 91.707 12.6465V17H90.4473V16.0977H90.3477C89.9727 16.7421 89.3047 17.1055 88.4609 17.1055C87.248 17.1055 86.3516 16.3672 86.3516 15.2129V15.2012C86.3516 14.0645 87.207 13.4023 88.7246 13.3086L90.4473 13.209V12.6465C90.4473 11.9492 90.0078 11.5625 89.1465 11.5625C88.4434 11.5625 87.9805 11.8203 87.8281 12.2715L87.8223 12.2949H86.5977L86.6035 12.2539C86.7559 11.2109 87.7578 10.5137 89.2051 10.5137ZM88.8945 14.2051C88.0156 14.2578 87.6172 14.5742 87.6172 15.1484V15.1602C87.6172 15.7461 88.1152 16.0918 88.8008 16.0918C89.75 16.0918 90.4473 15.4707 90.4473 14.6504V14.1055L88.8945 14.2051Z" fill="white"/>
<path fill-rule="evenodd" clip-rule="evenodd" d="M27.4121 8.54492C29.0703 8.54493 30.2188 9.65821 30.2188 11.3164V11.3281C30.2187 12.9805 29.0703 14.1113 27.4121 14.1113H25.4316V17H24.1191V8.54492H27.4121ZM25.4316 13.0098H27.084C28.2207 13.0098 28.8828 12.3945 28.8828 11.334V11.3223C28.8828 10.2676 28.2207 9.65234 27.084 9.65234H25.4316V13.0098Z" fill="white"/>
<path d="M60.5234 12.9102H60.623L61.9824 10.6367H63.3887L61.2852 13.7773L63.4121 17H61.9648L60.5703 14.7031H60.4766L59.082 17H57.6992L59.8145 13.8301L57.6816 10.6367H59.1523L60.5234 12.9102Z" fill="white"/>
<path d="M80.6211 13.2031H83.5098V10.6367H84.7754V17H83.5098V14.2109H80.6211V17H79.3496V10.6367H80.6211V13.2031Z" fill="white"/>
</g>
<defs>
<clipPath id="clip0_1415_423">
<rect width="92" height="28" fill="white"/>
</clipPath>
</defs>
</svg>
