<svg width="143" height="30" viewBox="0 0 143 30" fill="none" xmlns="http://www.w3.org/2000/svg">
<path d="M83.6457 8.60539C85.5704 8.60541 87.1657 10.0026 87.4693 11.8324C87.7949 10.1154 89.3121 8.81907 91.1304 8.82793L91.0623 22.6763H91.0536L91.0895 30C88.9417 30.0104 87.1944 28.2786 87.1944 26.1386V20.7111L87.1591 20.6267H77.1016V25.8921H87.1591V26.176C87.0999 27.5678 86.1753 29.8863 82.7444 29.8863H77.6642C77.6349 29.8863 73.0464 29.8737 73.0086 25.941H73.0077V20.1462C73.0077 19.7244 73.6514 16.8489 77.1016 16.5596V16.5721H87.1591V12.4838L81.5919 12.4568H74.338V12.4213L73.6216 12.4179V8.60539H83.6457Z" fill="white"/>
<path d="M138.376 22.4656H138.368L138.402 29.7955C136.456 29.8059 134.365 28.1654 134.365 26.1392V26.0667C134.089 27.4745 132.839 29.8813 130.851 29.9305C128.74 29.9828 124.583 29.9523 122.693 29.9305C121.618 29.7129 119.886 28.5847 119.886 25.8162V8.60539C122.087 8.60539 124.212 11.1215 124.212 13.4129V25.8162H134.365V22.4656H134.362L134.365 12.3015C134.365 10.2526 136.434 8.59539 138.402 8.60539L138.376 22.4656Z" fill="white"/>
<path d="M104.003 8.60539L104.003 8.60632L114.768 8.67199L114.768 12.4845L107.901 12.4851L107.882 29.8605H103.87V16.3181C103.87 14.4312 105.174 12.8476 106.934 12.4138C105.436 12.1235 104.246 10.9735 103.903 9.50085C103.505 11.2114 101.967 12.4883 100.127 12.4907L96.249 12.4957L96.2553 8.68289L103.803 8.60725V8.60539L103.927 8.60601L104.003 8.60539Z" fill="white"/>
<path fill-rule="evenodd" clip-rule="evenodd" d="M53.7375 8.63215C56.0757 8.61198 61.4059 8.58374 64.0187 8.63215C66.631 8.68062 67.6873 11.1942 67.8888 12.4449V17.659L67.8698 17.6636C67.5336 21.0232 64.3465 21.4518 63.9262 21.4518L53.7375 21.4521V25.7365H67.6754C67.3849 29.1739 64.4988 29.8154 64.0755 29.8154H53.4307C53.0155 29.8152 50.1555 29.199 49.7673 25.9403H49.7461V12.4449C49.7461 9.87903 52.4069 8.83392 53.7375 8.63215ZM53.7375 17.5787H58.5196L64.0187 17.5286V12.4449H53.7375V17.5787Z" fill="white"/>
<path d="M25.5297 8.60539C27.6616 8.60016 29.3927 10.3205 29.3927 12.4443V29.7964H25.5297V8.60539Z" fill="white"/>
<path d="M0.145897 0L4.03543 0.0189861L3.95733 15.9091L12.8673 8.05043L17.8263 8.07471L6.95306 17.8261L20.2656 29.7755H14.6362L4.1404 20.3117L4.09417 29.7755L0 29.7556L0.0481115 19.9862C0.0588205 17.8083 1.78072 16.0375 3.93827 15.9322L3.93859 15.9259C1.79931 15.9054 0.0767741 14.1663 0.0871631 12.0325L0.145897 0Z" fill="white"/>
<path d="M40.2341 8.67573C40.7288 8.67573 44.2718 9.15239 44.625 12.9071H44.626L44.6256 12.9159C44.6261 12.9211 44.627 12.9264 44.6275 12.9317H44.626L44.5944 18.109H44.5963C44.5957 18.1155 44.595 18.1219 44.5944 18.1283C44.2437 21.8879 40.6978 22.365 40.2025 22.365H33.7868C33.2906 22.365 29.7329 21.8863 29.3927 18.109H39.8976L39.9295 12.9317H29.4243C29.7645 9.15456 33.3218 8.67574 33.818 8.67573H40.2341Z" fill="white"/>
<path d="M140.787 1.01591C141.055 1.01592 141.283 1.08898 141.47 1.23503C141.657 1.37922 141.77 1.56513 141.81 1.79279H141.502C141.461 1.64295 141.377 1.52248 141.25 1.43143C141.122 1.34037 140.968 1.2948 140.787 1.29479C140.542 1.29479 140.346 1.3784 140.197 1.54535C140.049 1.71037 139.974 1.93502 139.974 2.21951C139.974 2.50787 140.049 2.73756 140.197 2.9083C140.346 3.07712 140.542 3.16166 140.787 3.16166C140.977 3.16165 141.134 3.11878 141.258 3.03342C141.382 2.94618 141.462 2.82868 141.499 2.68078H141.81C141.77 2.91212 141.659 3.09605 141.476 3.23262C141.293 3.36919 141.064 3.43773 140.789 3.43773C140.45 3.43772 140.176 3.32752 139.969 3.1075C139.763 2.88744 139.659 2.59135 139.659 2.21951C139.659 1.85153 139.763 1.55928 139.969 1.34304C140.174 1.12496 140.447 1.01591 140.787 1.01591Z" fill="white"/>
<path fill-rule="evenodd" clip-rule="evenodd" d="M140.761 0C141.073 0 141.368 0.0570576 141.644 0.170875C141.921 0.284703 142.158 0.440137 142.357 0.637436C142.555 0.834731 142.711 1.07198 142.826 1.34895C142.942 1.62401 143 1.91803 143 2.23103C143 2.54212 142.942 2.83615 142.826 3.1131C142.711 3.38819 142.555 3.6245 142.357 3.82181C142.158 4.0191 141.921 4.17453 141.644 4.28838C141.368 4.40409 141.073 4.46205 140.761 4.46205C140.45 4.46205 140.156 4.4041 139.88 4.28838C139.603 4.17455 139.366 4.01905 139.168 3.82181C138.97 3.6245 138.812 3.3882 138.696 3.1131C138.579 2.83615 138.521 2.54212 138.521 2.23103C138.521 1.91992 138.579 1.62591 138.693 1.34895C138.809 1.07199 138.967 0.83473 139.165 0.637436C139.363 0.440137 139.601 0.284703 139.877 0.170875C140.155 0.0570554 140.45 0 140.761 0ZM140.761 0.310314C140.492 0.310314 140.238 0.359512 140 0.458157C139.764 0.55491 139.559 0.688625 139.388 0.859356C139.218 1.0282 139.084 1.23223 138.985 1.47127C138.886 1.70841 138.836 1.96164 138.836 2.23103C138.836 2.58955 138.92 2.91588 139.087 3.2099C139.257 3.50398 139.489 3.73455 139.783 3.90149C140.078 4.0684 140.404 4.15174 140.761 4.15174C141.03 4.15174 141.282 4.10254 141.519 4.00389C141.757 3.90525 141.961 3.77151 142.131 3.6027C142.302 3.43196 142.438 3.22792 142.537 2.99078C142.636 2.75365 142.685 2.50041 142.685 2.23103C142.685 1.96164 142.636 1.70841 142.537 1.47127C142.438 1.23223 142.303 1.0282 142.133 0.859356C141.964 0.688625 141.76 0.55491 141.521 0.458157C141.283 0.359512 141.03 0.310314 140.761 0.310314Z" fill="white"/>
</svg>
