<svg width="81" height="21" viewBox="0 0 81 21" fill="none" xmlns="http://www.w3.org/2000/svg">
<g clip-path="url(#clip0_1415_243)">
<path d="M7.58398 4.20215C8.42377 4.42706 14.4296 6.42511 15.1436 6.65527V8.75879L15.1377 8.75781V12.877C15.1377 16.9072 11.7458 20.2096 7.58398 20.251H7.56055C3.39885 20.2086 0.0078125 16.9071 0.0078125 12.877V8.75781H0.00585938L0 8.75879V6.65527C0.713896 6.4243 6.71979 4.42706 7.55957 4.20215L7.57129 4.19922L7.58398 4.20215ZM6.86719 6.51758C5.79115 6.85594 3.82221 7.50124 2.25195 8.01855V12.877C2.25195 15.7099 4.6393 18.0458 7.56934 18.084H7.58105C10.5111 18.0458 12.8984 15.7099 12.8984 12.877V8.01855H12.8994C11.3293 7.50131 9.36116 6.85594 8.28516 6.51758C8.05449 6.44357 7.81526 6.36176 7.57617 6.28613C7.33707 6.36176 7.09787 6.44356 6.86719 6.51758ZM67.9629 16.3164H68.1738L68.1455 16.8301H67.9922V16.4795H66.6689L66.6367 16.8301H66.4814V16.3164H66.6484C66.8125 16.0634 66.8955 15.6832 66.8955 15.1787V14.9043H67.9629V16.3164ZM70.0752 16.3164H70.2871L70.2588 16.8301H70.1055V16.4795H68.7822L68.75 16.8301H68.5947V16.3164H68.7617C68.9258 16.0634 69.0088 15.6832 69.0088 15.1787V14.9043H70.0752V16.3164ZM34.7744 14.877C34.9106 14.877 35.0279 14.8985 35.124 14.9414C35.2201 14.9843 35.3151 15.0475 35.4053 15.1318L35.2832 15.2578C35.1263 15.1135 34.9564 15.042 34.7715 15.042C34.5865 15.042 34.4412 15.1042 34.3213 15.2285C34.2014 15.3529 34.1416 15.5079 34.1416 15.6924C34.1417 15.8766 34.2019 16.0299 34.3232 16.1543C34.4446 16.2799 34.5946 16.3408 34.7734 16.3408C34.8783 16.3408 34.9715 16.3222 35.0527 16.2852C35.1341 16.248 35.2156 16.1912 35.2998 16.1143L35.4209 16.2383C35.3292 16.3268 35.2333 16.3942 35.1328 16.4385C35.0322 16.4829 34.9106 16.5059 34.7686 16.5059H34.7676C34.5338 16.5059 34.338 16.4272 34.1826 16.2715C34.0273 16.1143 33.9503 15.921 33.9502 15.6924C33.9502 15.4636 34.0287 15.2729 34.1855 15.1143C34.3424 14.9557 34.5393 14.877 34.7744 14.877ZM40.7646 14.876C41.0058 14.876 41.206 14.9557 41.3613 15.1143C41.5167 15.2729 41.5937 15.4646 41.5938 15.6904C41.5938 15.9163 41.5153 16.1056 41.3584 16.2656C41.2016 16.4256 41.0019 16.5058 40.7607 16.5059C40.5196 16.5059 40.3194 16.4253 40.1641 16.2666C40.0088 16.108 39.9316 15.9162 39.9316 15.6904C39.9317 15.4647 40.0103 15.2762 40.167 15.1162C40.3238 14.9561 40.5237 14.8761 40.7646 14.876ZM52.751 14.876C52.992 14.876 53.1914 14.9559 53.3467 15.1143C53.502 15.2729 53.5791 15.4646 53.5791 15.6904C53.5791 15.9163 53.5006 16.1056 53.3438 16.2656C53.1869 16.4256 52.9872 16.5059 52.7461 16.5059C52.505 16.5058 52.3048 16.4253 52.1494 16.2666C51.9943 16.108 51.918 15.9161 51.918 15.6904C51.918 15.4646 51.9964 15.2762 52.1533 15.1162C52.3102 14.9561 52.5099 14.876 52.751 14.876ZM57.125 14.876C57.3661 14.876 57.5662 14.9556 57.7217 15.1143C57.877 15.2729 57.9541 15.4646 57.9541 15.6904C57.9541 15.9163 57.8756 16.1056 57.7188 16.2656C57.562 16.4257 57.3621 16.5058 57.1211 16.5059C56.8799 16.5059 56.6798 16.4253 56.5244 16.2666C56.3691 16.1079 56.292 15.9163 56.292 15.6904C56.292 15.4647 56.3706 15.2762 56.5273 15.1162C56.6842 14.9561 56.8838 14.876 57.125 14.876ZM65.1133 14.876C65.3544 14.876 65.5546 14.9556 65.71 15.1143C65.8653 15.2729 65.9423 15.4646 65.9424 15.6904C65.9424 15.9163 65.8639 16.1056 65.707 16.2656C65.5502 16.4257 65.3504 16.5058 65.1094 16.5059C64.8681 16.5059 64.6681 16.4253 64.5127 16.2666C64.3574 16.1079 64.2803 15.9162 64.2803 15.6904C64.2803 15.4647 64.3589 15.2762 64.5156 15.1162C64.6724 14.9561 64.8722 14.8761 65.1133 14.876ZM77.8213 15.8438L78.7578 14.9033H78.9951L78.2969 15.5918L79.0264 16.4785H78.7949L78.1689 15.7168L77.8232 16.0566V16.4795H77.6396L77.6377 16.4785V14.9033H77.8213V15.8438ZM25.7041 16.4785H25.5059L25.3154 16.0625H24.4287L24.2344 16.4785H24.0469L24.79 14.8926H24.9609L25.7041 16.4785ZM30.2139 15.6016H31.1543V14.9033H31.3379V16.4785H31.1543V15.7695H30.2139V16.4785H30.0303V14.9033H30.2139V15.6016ZM33.3213 15.0654H32.7734V16.4785H32.5869V15.0654H32.04V14.9043H33.3213V15.0654ZM37.2637 15.0654H36.7158V16.4785H36.5293V15.0654H35.9824V14.9043H37.2637V15.0654ZM45.0225 16.4785H44.8389V15.0654H43.9219V16.4785H43.7363V14.9033H45.0225V16.4785ZM49.2715 16.4785H49.0732L48.8818 16.0625H47.9941L47.8008 16.4785H47.6143L48.3564 14.8926H48.5283L49.2715 16.4785ZM58.8828 16.21L59.8574 14.9033H60.0322V16.4785H59.8496V15.1719L58.8789 16.4785H58.7002V14.9033H58.8828V16.21ZM63.5332 16.4785H63.3496V15.0654H62.4316V16.4785H62.2471V14.9033H63.5332V16.4785ZM75.6885 15.834V14.9043H75.8721V15.834L76.7217 14.9043H76.9492L76.3203 15.5791L76.9912 16.4785H76.7637L76.1924 15.7109L75.8711 16.0557V16.4785H75.6875V16.0557L75.3633 15.7109L74.7949 16.4785H74.5703L75.2402 15.5791L74.6113 14.9043H74.8398L75.6885 15.834ZM79.8516 16.21L80.8252 14.9033H81V16.4785H80.8184V15.1719L79.8477 16.4785H79.668V14.9033H79.8516V16.21ZM27.4238 15.0645H26.5674V16.4766H26.3838V14.9033H27.4238V15.0645ZM29.29 15.0645H28.2959V15.6016H29.1846V15.7637H28.2959V16.3154H29.3018V16.4766H28.1123V14.9033H29.29V15.0645ZM38.6592 14.9033C38.85 14.9033 38.9918 14.9502 39.085 15.043C39.1545 15.113 39.1904 15.1988 39.1904 15.2988C39.1904 15.4703 39.1046 15.5917 38.9316 15.6631C39.1639 15.7303 39.2812 15.8593 39.2812 16.0479C39.2812 16.1809 39.2272 16.2866 39.1191 16.3623C39.0126 16.4395 38.8689 16.4766 38.6885 16.4766H37.9648V14.9033H38.6592ZM46.4512 14.9033C46.6375 14.9034 46.7856 14.9471 46.8965 15.0371C47.006 15.1271 47.0625 15.2504 47.0625 15.4062C47.0625 15.5619 47.0015 15.6961 46.8789 15.7861C46.7575 15.8763 46.6043 15.9209 46.4209 15.9209H46.0244V16.4766H45.8408V14.9033H46.4512ZM50.6445 14.9033C50.8355 14.9033 50.9781 14.95 51.0713 15.043C51.1408 15.113 51.1757 15.1989 51.1758 15.2988C51.1758 15.4704 51.0901 15.5917 50.917 15.6631C51.1493 15.7303 51.2665 15.8593 51.2666 16.0479C51.2666 16.1807 51.2132 16.2866 51.1055 16.3623C50.9991 16.4395 50.8551 16.4765 50.6748 16.4766H49.9502V14.9033H50.6445ZM55.0195 14.9033C55.2102 14.9034 55.3521 14.9501 55.4453 15.043C55.5149 15.113 55.5507 15.1988 55.5508 15.2988C55.5508 15.4703 55.4649 15.5916 55.292 15.6631C55.524 15.7303 55.6405 15.8593 55.6406 16.0479C55.6406 16.1808 55.5875 16.2866 55.4795 16.3623C55.3729 16.4395 55.2294 16.4766 55.0488 16.4766H54.3252V14.9033H55.0195ZM72.0928 15.0645H71.0986V15.6016H71.9873V15.7637H71.0986V16.3154H72.1045V16.4766H70.915V14.9033H72.0928V15.0645ZM73.4404 14.9033C73.627 14.9033 73.7757 14.947 73.8867 15.0371C73.9962 15.1271 74.0518 15.2504 74.0518 15.4062C74.0517 15.5621 73.991 15.6961 73.8682 15.7861C73.7468 15.8762 73.5945 15.9209 73.4111 15.9209H73.0146V16.4766H72.8311V14.9033H73.4404ZM40.7588 15.042C40.5741 15.0421 40.4216 15.1043 40.3018 15.2285C40.1819 15.3543 40.1211 15.5075 40.1211 15.6904C40.1211 15.8734 40.1819 16.0252 40.3047 16.1523C40.426 16.2781 40.5799 16.3407 40.7646 16.3408C40.9497 16.3408 41.1028 16.2786 41.2227 16.1543C41.3424 16.0285 41.4033 15.8753 41.4033 15.6924C41.4033 15.5095 41.3423 15.3577 41.2197 15.2305C41.0983 15.1047 40.9438 15.042 40.7588 15.042ZM52.7451 15.042C52.5602 15.042 52.407 15.1042 52.2871 15.2285C52.1672 15.3543 52.1065 15.5075 52.1064 15.6904C52.1064 15.8733 52.1673 16.0252 52.29 16.1523C52.4114 16.2782 52.566 16.3408 52.751 16.3408C52.9358 16.3407 53.0883 16.2785 53.208 16.1543C53.3279 16.0285 53.3886 15.8753 53.3887 15.6924C53.3887 15.5094 53.3278 15.3578 53.2051 15.2305C53.0838 15.1048 52.93 15.0421 52.7451 15.042ZM57.1191 15.042C56.9343 15.042 56.7818 15.1044 56.6621 15.2285C56.5422 15.3543 56.4815 15.5075 56.4814 15.6904C56.4814 15.8734 56.5422 16.0251 56.665 16.1523C56.7863 16.2781 56.9401 16.3408 57.125 16.3408C57.3097 16.3408 57.4622 16.2784 57.582 16.1543C57.7019 16.0285 57.7626 15.8753 57.7627 15.6924C57.7627 15.5094 57.702 15.3578 57.5791 15.2305C57.4578 15.1048 57.304 15.042 57.1191 15.042ZM65.1074 15.042C64.9226 15.0421 64.7701 15.1043 64.6504 15.2285C64.5305 15.3543 64.4698 15.5075 64.4697 15.6904C64.4697 15.8734 64.5305 16.0252 64.6533 16.1523C64.7745 16.2781 64.9284 16.3407 65.1133 16.3408C65.2982 16.3408 65.4514 16.2786 65.5713 16.1543C65.6911 16.0285 65.7519 15.8753 65.752 15.6924C65.752 15.5095 65.691 15.3577 65.5684 15.2305C65.447 15.1047 65.2924 15.042 65.1074 15.042ZM38.1445 16.3184H38.6934C38.8176 16.3183 38.9154 16.2921 38.9863 16.2422C39.0572 16.1921 39.0928 16.1223 39.0928 16.0322C39.0928 15.9423 39.0555 15.8778 38.9814 15.832C38.9075 15.7849 38.8011 15.7617 38.6592 15.7617H38.1445V16.3184ZM50.1299 16.3184H50.6787C50.8029 16.3184 50.9006 16.2922 50.9717 16.2422C51.0427 16.1921 51.0781 16.1223 51.0781 16.0322C51.0781 15.9423 51.0417 15.8778 50.9678 15.832C50.8938 15.7848 50.7867 15.7617 50.6445 15.7617H50.1299V16.3184ZM54.5059 16.3184H55.0547C55.179 16.3184 55.2766 16.2922 55.3477 16.2422C55.4186 16.1921 55.4541 16.1223 55.4541 16.0322C55.4541 15.9423 55.4176 15.8778 55.3438 15.832C55.2697 15.7848 55.1625 15.7617 55.0205 15.7617H54.5059V16.3184ZM67.0713 15.2705C67.0713 15.4777 67.0521 15.6762 67.0137 15.8691C66.9751 16.0605 66.9219 16.2107 66.8555 16.3164H67.7773V15.0654H67.0713V15.2705ZM69.1846 15.2705C69.1846 15.4777 69.1655 15.6762 69.127 15.8691C69.0885 16.0605 69.0353 16.2107 68.9688 16.3164H69.8906V15.0654H69.1846V15.2705ZM7.42969 8.57812C8.46775 8.85954 9.5034 9.15187 10.5381 9.44629L10.6807 12.752C10.7512 14.3868 9.42951 15.8047 7.74316 15.9121H7.72461C6.03479 15.9406 4.59611 14.6329 4.52539 12.998L4.38281 9.69238C5.38805 9.31662 6.39583 8.9425 7.40527 8.57812C7.40832 8.57739 7.41565 8.57473 7.41699 8.57422C7.42113 8.57502 7.42555 8.57728 7.42969 8.57812ZM24.501 15.9023H25.2441L24.874 15.0986L24.501 15.9023ZM48.0684 15.9023H48.8115L48.4414 15.0986L48.0684 15.9023ZM46.0264 15.7607H46.4268C46.5614 15.7607 46.6701 15.7294 46.7529 15.665C46.8343 15.6007 46.8759 15.5163 46.876 15.4092C46.876 15.302 46.8371 15.2148 46.7588 15.1562C46.6804 15.0976 46.5732 15.0674 46.4385 15.0674H46.0264V15.7607ZM73.0166 15.7607H73.417C73.5516 15.7607 73.6603 15.7294 73.7432 15.665C73.8245 15.6007 73.8652 15.5163 73.8652 15.4092C73.8652 15.3021 73.8273 15.2148 73.749 15.1562C73.6706 15.0976 73.5634 15.0674 73.4287 15.0674H73.0166V15.7607ZM38.1455 15.6064H38.6279C38.7418 15.6064 38.8323 15.5822 38.9004 15.5322C38.9685 15.4823 39.0029 15.4118 39.0029 15.3203C39.0029 15.2403 38.9718 15.1785 38.9082 15.1328C38.846 15.0871 38.7555 15.0645 38.6416 15.0645H38.1455V15.6064ZM50.1309 15.6064H50.6133C50.7271 15.6064 50.8177 15.5821 50.8857 15.5322C50.9537 15.4823 50.9883 15.4118 50.9883 15.3203C50.9883 15.2403 50.9571 15.1785 50.8936 15.1328C50.8314 15.0871 50.7408 15.0645 50.627 15.0645H50.1309V15.6064ZM54.5068 15.6064H54.9902C55.1037 15.6064 55.1938 15.5821 55.2617 15.5322C55.3298 15.4823 55.3643 15.4118 55.3643 15.3203C55.3642 15.2403 55.3332 15.1785 55.2695 15.1328C55.2074 15.0871 55.1169 15.0645 55.0029 15.0645H54.5068V15.6064ZM59.7109 14.4971C59.6976 14.5785 59.6583 14.6439 59.5977 14.6953H59.5996C59.539 14.7468 59.4651 14.7724 59.3779 14.7725C59.2907 14.7725 59.2164 14.7469 59.1572 14.6953C59.0966 14.6439 59.0598 14.577 59.0449 14.4971L59.1709 14.4727C59.2019 14.5768 59.2714 14.6299 59.3779 14.6299C59.4843 14.6298 59.554 14.5768 59.585 14.4727L59.7109 14.4971ZM54.2764 3.52441C55.2855 3.5245 56.5045 3.93955 57.166 5.35156L55.4717 6.01367C54.9137 5.02747 53.0802 5.25195 53.0801 6.23828V8.97461C53.0801 9.92667 54.9365 10.1967 55.3896 9.09766L57.2002 9.90527C56.515 11.1948 55.2733 11.6885 54.2402 11.6885C52.6273 11.6884 51.0029 10.7802 51.0029 8.97461V6.23828C51.003 4.44411 52.6278 3.52441 54.2764 3.52441ZM69.9229 3.52441C71.6291 3.52441 73.3359 4.43291 73.3359 6.25V8.96289C73.3359 10.78 71.6408 11.6885 69.9346 11.6885C68.2283 11.6884 66.5225 10.7799 66.5225 8.96289V6.25C66.5225 4.42148 68.2165 3.52442 69.9229 3.52441ZM30.8955 3.52344C32.6016 3.52349 34.3201 4.43122 34.3203 6.24805V8.96191C34.3203 10.7789 32.6134 11.6865 30.9072 11.6865C29.2009 11.6865 27.4825 10.7789 27.4824 8.96191V8.49121H26.1836V11.5752H24.0938V3.63672H26.1836V6.65332H27.4824V6.24805C27.4826 4.41972 29.1892 3.52344 30.8955 3.52344ZM35.4346 11.6768L35.4326 11.6748H35.4346V11.6768ZM39.0771 3.53809C39.5121 3.53809 39.912 3.60611 40.2744 3.74609C40.6355 3.88615 40.9347 4.07372 41.1699 4.30664C41.4068 4.53968 41.6048 4.80772 41.7676 5.10938C41.9303 5.41373 42.0284 5.73064 42.0654 6.06641C42.0995 6.40095 42.0995 6.73772 42.0654 7.07227C42.0299 7.40659 41.9303 7.72489 41.7676 8.02637C41.6048 8.33088 41.4068 8.59848 41.1699 8.83008C40.9347 9.06312 40.6356 9.24948 40.2744 9.38672C39.912 9.52385 39.5121 9.59375 39.0771 9.59375H37.5264V11.6748H35.4346V3.53809H39.0771ZM60.3584 6.69141H60.5166C60.9114 6.69141 61.2429 6.63166 61.5137 6.51172C61.7845 6.39163 61.9864 6.25513 62.124 6.10645C62.2616 5.9549 62.3637 5.72312 62.4316 5.41309C62.4997 5.10182 62.5384 4.84906 62.5459 4.65332C62.5533 4.46032 62.5576 4.16066 62.5576 3.76465V3.54492H64.7754V3.6748C64.7754 3.91356 64.7745 4.09279 64.7715 4.21289C64.77 4.33438 64.7652 4.50316 64.7578 4.72168C64.7504 4.94152 64.736 5.11149 64.7168 5.23438C64.699 5.35867 64.6688 5.51465 64.6318 5.70605C64.5933 5.89899 64.5513 6.05825 64.498 6.18262C64.4433 6.3084 64.3777 6.45132 64.2949 6.61426C64.2121 6.77437 64.1183 6.91845 64.0117 7.03711C63.9081 7.15721 63.7813 7.28389 63.6348 7.41113C63.4882 7.53828 63.3268 7.65802 63.1523 7.7666L65.4346 11.3496V11.6729H63.0439L61.1855 8.48242C60.9932 8.51101 60.7195 8.52539 60.3584 8.52539V11.6729H58.2715V3.54492H60.3584V6.69141ZM45.3193 8.15527L47.9707 3.63672H49.873V11.5752H47.7852C47.7852 10.1127 47.79 8.65153 47.79 7.19043L45.1855 11.5752H43.2227V3.63672H45.3125C45.3125 5.14767 45.3193 6.65719 45.3193 8.15527ZM76.541 6.6416H78.9092V3.63672H80.998V11.5752H78.9092V8.58203H76.541V11.5752H74.4512V3.63672H76.541V6.6416ZM69.8994 5.35352C69.2498 5.35352 68.5996 5.6667 68.5996 6.25V8.96289C68.5996 9.54614 69.273 9.8271 69.9346 9.82715C70.596 9.82715 71.2578 9.53475 71.2578 8.96289V6.25C71.2578 5.63391 70.549 5.3536 69.8994 5.35352ZM30.8955 5.42871C30.234 5.44014 29.5723 5.74385 29.5723 6.32715V8.91797C29.5726 9.48953 30.2342 9.78125 30.8955 9.78125C31.5567 9.78121 32.2301 9.5009 32.2305 8.91797V6.32715C32.2305 5.72102 31.5569 5.42876 30.8955 5.42871ZM37.8184 5.39746C37.6083 5.39889 37.4499 5.39941 37.3389 5.39941V7.72363H38.8809C39.0406 7.72362 39.1857 7.68097 39.3174 7.59668C39.4476 7.5109 39.5481 7.40047 39.6162 7.26465C39.6857 7.12899 39.736 6.97768 39.7686 6.81348C39.8025 6.64919 39.8039 6.48453 39.7744 6.31738C39.7462 6.15012 39.6993 5.9991 39.6328 5.86328C39.5647 5.72761 39.4651 5.61644 39.335 5.5293C39.2033 5.44211 39.0521 5.39941 38.8789 5.39941C38.7281 5.39513 38.5681 5.39355 38.3936 5.39355C38.219 5.39356 38.0268 5.3946 37.8184 5.39746ZM0.00976562 4.55566L0.0078125 4.55469L0.00976562 4.55371V4.55566ZM7.58594 0.00292969C8.42369 0.227424 14.4265 2.22294 15.1396 2.45312V4.55469C14.4179 4.3204 10.0909 2.88306 8.28223 2.31445C8.05237 2.24044 7.81236 2.15963 7.57324 2.08398C7.33428 2.15959 7.09495 2.23967 6.86523 2.31445C5.05918 2.88251 0.738477 4.31653 0.00976562 4.55371V2.4541C0.723824 2.2228 6.72424 0.227608 7.5625 0.00292969L7.57422 0L7.58594 0.00292969Z" fill="white"/>
</g>
<defs>
<clipPath id="clip0_1415_243">
<rect width="81" height="20.5352" fill="white"/>
</clipPath>
</defs>
</svg>
